<?xml version="1.0" encoding="utf-8"?>
<!-- Generator: Adobe Illustrator 27.5.0, SVG Export Plug-In . SVG Version: 6.00 Build 0)  -->
<svg version="1.1" id="Capa_1" xmlns="http://www.w3.org/2000/svg" xmlns:xlink="http://www.w3.org/1999/xlink" x="0px" y="0px"
	 viewBox="0 0 2122 2122" style="enable-background:new 0 0 2122 2122;" xml:space="preserve">
<g>
	<rect x="0.007" y="-2.402" style="fill:#85C554;" width="2121.308" height="2126.125"/>
	<rect x="0.007" y="1657.909" style="fill:#4A893C;" width="2121.308" height="465.813"/>
	<rect x="0.007" y="1558.963" style="fill:#275A22;" width="2121.308" height="98.946"/>
</g>
<g>
	<g>
		
			<rect x="574.563" y="363.125" style="fill:#82449A;stroke:#2B0000;stroke-width:6.4625;stroke-linecap:round;stroke-linejoin:round;stroke-miterlimit:10;" width="1066.514" height="692.246"/>
		
			<rect x="648.949" y="425.955" style="fill:#19773C;stroke:#2B0000;stroke-width:6.4625;stroke-linecap:round;stroke-linejoin:round;stroke-miterlimit:10;" width="917.735" height="566.586"/>
		<g>
			
				<line style="fill:#DCDDDE;stroke:#2B0000;stroke-width:6.4625;stroke-linecap:round;stroke-linejoin:round;stroke-miterlimit:10;" x1="575.922" y1="918.896" x2="626.582" y2="918.896"/>
			
				<line style="fill:#DCDDDE;stroke:#2B0000;stroke-width:6.4625;stroke-linecap:round;stroke-linejoin:round;stroke-miterlimit:10;" x1="575.922" y1="885.916" x2="613.071" y2="885.916"/>
			
				<line style="fill:#DCDDDE;stroke:#2B0000;stroke-width:6.4625;stroke-linecap:round;stroke-linejoin:round;stroke-miterlimit:10;" x1="575.922" y1="819.959" x2="626.582" y2="819.959"/>
			
				<line style="fill:#DCDDDE;stroke:#2B0000;stroke-width:6.4625;stroke-linecap:round;stroke-linejoin:round;stroke-miterlimit:10;" x1="575.922" y1="786.975" x2="613.071" y2="786.975"/>
			
				<line style="fill:#DCDDDE;stroke:#2B0000;stroke-width:6.4625;stroke-linecap:round;stroke-linejoin:round;stroke-miterlimit:10;" x1="575.922" y1="852.933" x2="626.908" y2="852.933"/>
			
				<line style="fill:#DCDDDE;stroke:#2B0000;stroke-width:6.4625;stroke-linecap:round;stroke-linejoin:round;stroke-miterlimit:10;" x1="575.922" y1="721.012" x2="626.582" y2="721.012"/>
			
				<line style="fill:#DCDDDE;stroke:#2B0000;stroke-width:6.4625;stroke-linecap:round;stroke-linejoin:round;stroke-miterlimit:10;" x1="575.922" y1="688.033" x2="613.071" y2="688.033"/>
			
				<line style="fill:#DCDDDE;stroke:#2B0000;stroke-width:6.4625;stroke-linecap:round;stroke-linejoin:round;stroke-miterlimit:10;" x1="575.922" y1="753.998" x2="626.908" y2="753.998"/>
		</g>
		<g>
			
				<line style="fill:#DCDDDE;stroke:#2B0000;stroke-width:6.4625;stroke-linecap:round;stroke-linejoin:round;stroke-miterlimit:10;" x1="650.109" y1="700.063" x2="735.131" y2="700.063"/>
			
				<line style="fill:#DCDDDE;stroke:#2B0000;stroke-width:6.4625;stroke-linecap:round;stroke-linejoin:round;stroke-miterlimit:10;" x1="650.109" y1="665.188" x2="712.464" y2="665.188"/>
			
				<line style="fill:#DCDDDE;stroke:#2B0000;stroke-width:6.4625;stroke-linecap:round;stroke-linejoin:round;stroke-miterlimit:10;" x1="650.109" y1="630.316" x2="735.682" y2="630.316"/>
			
				<line style="fill:#DCDDDE;stroke:#2B0000;stroke-width:6.4625;stroke-linecap:round;stroke-linejoin:round;stroke-miterlimit:10;" x1="650.109" y1="560.57" x2="735.131" y2="560.57"/>
			
				<line style="fill:#DCDDDE;stroke:#2B0000;stroke-width:6.4625;stroke-linecap:round;stroke-linejoin:round;stroke-miterlimit:10;" x1="650.109" y1="525.698" x2="712.464" y2="525.698"/>
			
				<line style="fill:#DCDDDE;stroke:#2B0000;stroke-width:6.4625;stroke-linecap:round;stroke-linejoin:round;stroke-miterlimit:10;" x1="650.109" y1="595.444" x2="735.682" y2="595.444"/>
			
				<line style="fill:#DCDDDE;stroke:#2B0000;stroke-width:6.4625;stroke-linecap:round;stroke-linejoin:round;stroke-miterlimit:10;" x1="650.109" y1="455.952" x2="735.131" y2="455.952"/>
			
				<line style="fill:#DCDDDE;stroke:#2B0000;stroke-width:6.4625;stroke-linecap:round;stroke-linejoin:round;stroke-miterlimit:10;" x1="650.109" y1="490.824" x2="735.682" y2="490.824"/>
		</g>
		<path style="fill:#62265F;" d="M574.563,363.125v692.246h1066.514V363.125H574.563z M1611.723,1029.718H603.922V388.776h1007.801
			V1029.718z"/>
		<g>
			
				<line style="fill:#DCDDDE;stroke:#2B0000;stroke-width:6.4625;stroke-linecap:round;stroke-linejoin:round;stroke-miterlimit:10;" x1="1565.726" y1="933.634" x2="1480.708" y2="933.634"/>
			
				<line style="fill:#DCDDDE;stroke:#2B0000;stroke-width:6.4625;stroke-linecap:round;stroke-linejoin:round;stroke-miterlimit:10;" x1="1565.726" y1="898.764" x2="1503.378" y2="898.764"/>
			
				<line style="fill:#DCDDDE;stroke:#2B0000;stroke-width:6.4625;stroke-linecap:round;stroke-linejoin:round;stroke-miterlimit:10;" x1="1565.726" y1="863.888" x2="1480.162" y2="863.888"/>
			
				<line style="fill:#DCDDDE;stroke:#2B0000;stroke-width:6.4625;stroke-linecap:round;stroke-linejoin:round;stroke-miterlimit:10;" x1="1565.726" y1="794.144" x2="1480.708" y2="794.144"/>
			
				<line style="fill:#DCDDDE;stroke:#2B0000;stroke-width:6.4625;stroke-linecap:round;stroke-linejoin:round;stroke-miterlimit:10;" x1="1565.726" y1="759.271" x2="1503.378" y2="759.271"/>
			
				<line style="fill:#DCDDDE;stroke:#2B0000;stroke-width:6.4625;stroke-linecap:round;stroke-linejoin:round;stroke-miterlimit:10;" x1="1565.726" y1="829.016" x2="1480.162" y2="829.016"/>
			
				<line style="fill:#DCDDDE;stroke:#2B0000;stroke-width:6.4625;stroke-linecap:round;stroke-linejoin:round;stroke-miterlimit:10;" x1="1565.726" y1="689.523" x2="1480.708" y2="689.523"/>
			
				<line style="fill:#DCDDDE;stroke:#2B0000;stroke-width:6.4625;stroke-linecap:round;stroke-linejoin:round;stroke-miterlimit:10;" x1="1565.726" y1="724.398" x2="1480.162" y2="724.398"/>
		</g>
		<g>
			
				<line style="fill:#DCDDDE;stroke:#2B0000;stroke-width:6.4625;stroke-linecap:round;stroke-linejoin:round;stroke-miterlimit:10;" x1="1640.073" y1="665.943" x2="1589.413" y2="665.943"/>
			
				<line style="fill:#DCDDDE;stroke:#2B0000;stroke-width:6.4625;stroke-linecap:round;stroke-linejoin:round;stroke-miterlimit:10;" x1="1640.073" y1="632.964" x2="1602.919" y2="632.964"/>
			
				<line style="fill:#DCDDDE;stroke:#2B0000;stroke-width:6.4625;stroke-linecap:round;stroke-linejoin:round;stroke-miterlimit:10;" x1="1640.073" y1="567.004" x2="1589.413" y2="567.004"/>
			
				<line style="fill:#DCDDDE;stroke:#2B0000;stroke-width:6.4625;stroke-linecap:round;stroke-linejoin:round;stroke-miterlimit:10;" x1="1640.073" y1="534.024" x2="1602.919" y2="534.024"/>
			
				<line style="fill:#DCDDDE;stroke:#2B0000;stroke-width:6.4625;stroke-linecap:round;stroke-linejoin:round;stroke-miterlimit:10;" x1="1640.073" y1="599.982" x2="1589.087" y2="599.982"/>
			
				<line style="fill:#DCDDDE;stroke:#2B0000;stroke-width:6.4625;stroke-linecap:round;stroke-linejoin:round;stroke-miterlimit:10;" x1="1640.073" y1="468.065" x2="1589.413" y2="468.065"/>
			
				<line style="fill:#DCDDDE;stroke:#2B0000;stroke-width:6.4625;stroke-linecap:round;stroke-linejoin:round;stroke-miterlimit:10;" x1="1640.073" y1="435.08" x2="1602.919" y2="435.08"/>
			
				<line style="fill:#DCDDDE;stroke:#2B0000;stroke-width:6.4625;stroke-linecap:round;stroke-linejoin:round;stroke-miterlimit:10;" x1="1640.073" y1="501.043" x2="1589.087" y2="501.043"/>
		</g>
		<path style="fill:#679A44;" d="M1513.015,425.789c-1.486,78.68,8.209,359.785-5.038,418.703
			c-14.333,63.743-48.418,73.142-103.419,90.606c-45.384,14.409-123.468,7.361-170.084,8.156
			c-67.186,1.146-134.381,1.432-201.577,1.201c-127.988-0.441-255.968-2.353-383.947-2.58v50.666h917.735V425.955L1513.015,425.789z
			"/>
		
			<path style="fill:#FFFFFF;stroke:#2B0000;stroke-width:6.4625;stroke-linecap:round;stroke-linejoin:round;stroke-miterlimit:10;" d="
			M1209.027,980.104c0,4.553-3.703,8.25-8.254,8.25h-115.521c-4.56,0-8.253-3.697-8.253-8.25V968.41c0-4.555,3.693-8.25,8.253-8.25
			h115.521c4.551,0,8.254,3.695,8.254,8.25V980.104z"/>
		<g>
			
				<rect x="1239.955" y="907.213" style="fill:#EE4894;stroke:#2B0000;stroke-width:6.4625;stroke-linecap:round;stroke-linejoin:round;stroke-miterlimit:10;" width="189.786" height="81.141"/>
			
				<rect x="1256.461" y="920.359" style="fill:#F174A6;stroke:#2B0000;stroke-width:6.4625;stroke-linecap:round;stroke-linejoin:round;stroke-miterlimit:10;" width="156.778" height="54.846"/>
			<polygon style="fill:#FFFFFF;" points="1429.741,988.354 1239.955,988.354 1239.955,907.213 			"/>
		</g>
	</g>
	<path style="fill:#C0D6B9;" d="M895.771,1749.022c0,36.185-140.771,65.519-314.417,65.519
		c-173.645,0-314.418-29.334-314.418-65.519c0-36.19,140.774-65.524,314.418-65.524C755,1683.498,895.771,1712.832,895.771,1749.022
		z"/>
	<g>
		
			<rect x="324.711" y="1447.621" style="fill:#2B0000;stroke:#2B0000;stroke-width:6.0595;stroke-linecap:round;stroke-linejoin:round;stroke-miterlimit:10;" width="42.848" height="298.989"/>
		
			<rect x="812.626" y="1447.621" style="fill:#2B0000;stroke:#2B0000;stroke-width:6.0595;stroke-linecap:round;stroke-linejoin:round;stroke-miterlimit:10;" width="46.745" height="298.989"/>
		
			<rect x="301.135" y="1171.039" style="fill:#3FC0BF;stroke:#2B0000;stroke-width:6.0595;stroke-linecap:round;stroke-linejoin:round;stroke-miterlimit:10;" width="580.441" height="319.442"/>
		
			<rect x="361.52" y="1222.41" style="fill:#FDB72E;stroke:#2B0000;stroke-width:6.0595;stroke-linecap:round;stroke-linejoin:round;stroke-miterlimit:10;" width="459.674" height="216.7"/>
		
			<path style="fill:#3FC0BF;stroke:#2B0000;stroke-width:6.0595;stroke-linecap:round;stroke-linejoin:round;stroke-miterlimit:10;" d="
			M659.041,1259.667c0,8.063-6.543,14.602-14.608,14.602h-102.99c-8.065,0-14.604-6.538-14.604-14.602l0,0
			c0-8.073,6.539-14.611,14.604-14.611h102.99C652.498,1245.056,659.041,1251.594,659.041,1259.667L659.041,1259.667z"/>
		<path style="fill:#ABC4CF;" d="M807.232,1171.039c0.354,23.387,0.066,211.677-11.81,229.572
			c-11.829,17.841-40.983,18.396-59.917,18.655c-32.136,0.443-361.636-0.278-434.371-0.756v71.971h580.441v-319.442H807.232z"/>
		<g>
			
				<line style="fill:#DCDDDE;stroke:#2B0000;stroke-width:6.0595;stroke-linecap:round;stroke-linejoin:round;stroke-miterlimit:10;" x1="301.853" y1="1302.127" x2="334.555" y2="1302.127"/>
			
				<line style="fill:#DCDDDE;stroke:#2B0000;stroke-width:6.0595;stroke-linecap:round;stroke-linejoin:round;stroke-miterlimit:10;" x1="301.853" y1="1287.886" x2="325.839" y2="1287.886"/>
			
				<line style="fill:#DCDDDE;stroke:#2B0000;stroke-width:6.0595;stroke-linecap:round;stroke-linejoin:round;stroke-miterlimit:10;" x1="301.853" y1="1273.646" x2="334.768" y2="1273.646"/>
			
				<line style="fill:#DCDDDE;stroke:#2B0000;stroke-width:6.0595;stroke-linecap:round;stroke-linejoin:round;stroke-miterlimit:10;" x1="301.853" y1="1245.158" x2="334.555" y2="1245.158"/>
			
				<line style="fill:#DCDDDE;stroke:#2B0000;stroke-width:6.0595;stroke-linecap:round;stroke-linejoin:round;stroke-miterlimit:10;" x1="301.853" y1="1230.912" x2="325.839" y2="1230.912"/>
			
				<line style="fill:#DCDDDE;stroke:#2B0000;stroke-width:6.0595;stroke-linecap:round;stroke-linejoin:round;stroke-miterlimit:10;" x1="301.853" y1="1259.399" x2="334.768" y2="1259.399"/>
			
				<line style="fill:#DCDDDE;stroke:#2B0000;stroke-width:6.0595;stroke-linecap:round;stroke-linejoin:round;stroke-miterlimit:10;" x1="301.853" y1="1202.43" x2="334.555" y2="1202.43"/>
			
				<line style="fill:#DCDDDE;stroke:#2B0000;stroke-width:6.0595;stroke-linecap:round;stroke-linejoin:round;stroke-miterlimit:10;" x1="301.853" y1="1216.671" x2="334.768" y2="1216.671"/>
			
				<line style="fill:#DCDDDE;stroke:#2B0000;stroke-width:6.0595;stroke-linecap:round;stroke-linejoin:round;stroke-miterlimit:10;" x1="302.38" y1="1359.101" x2="335.076" y2="1359.101"/>
			
				<line style="fill:#DCDDDE;stroke:#2B0000;stroke-width:6.0595;stroke-linecap:round;stroke-linejoin:round;stroke-miterlimit:10;" x1="302.38" y1="1344.851" x2="326.365" y2="1344.851"/>
			
				<line style="fill:#DCDDDE;stroke:#2B0000;stroke-width:6.0595;stroke-linecap:round;stroke-linejoin:round;stroke-miterlimit:10;" x1="302.38" y1="1373.337" x2="335.291" y2="1373.337"/>
			
				<line style="fill:#DCDDDE;stroke:#2B0000;stroke-width:6.0595;stroke-linecap:round;stroke-linejoin:round;stroke-miterlimit:10;" x1="302.38" y1="1316.373" x2="335.076" y2="1316.373"/>
			
				<line style="fill:#DCDDDE;stroke:#2B0000;stroke-width:6.0595;stroke-linecap:round;stroke-linejoin:round;stroke-miterlimit:10;" x1="302.38" y1="1330.609" x2="335.291" y2="1330.609"/>
		</g>
		<g>
			
				<line style="fill:#DCDDDE;stroke:#2B0000;stroke-width:6.0595;stroke-linecap:round;stroke-linejoin:round;stroke-miterlimit:10;" x1="364.185" y1="1343.033" x2="396.883" y2="1343.033"/>
			
				<line style="fill:#DCDDDE;stroke:#2B0000;stroke-width:6.0595;stroke-linecap:round;stroke-linejoin:round;stroke-miterlimit:10;" x1="364.185" y1="1328.787" x2="388.17" y2="1328.787"/>
			
				<line style="fill:#DCDDDE;stroke:#2B0000;stroke-width:6.0595;stroke-linecap:round;stroke-linejoin:round;stroke-miterlimit:10;" x1="364.185" y1="1314.551" x2="397.096" y2="1314.551"/>
			
				<line style="fill:#DCDDDE;stroke:#2B0000;stroke-width:6.0595;stroke-linecap:round;stroke-linejoin:round;stroke-miterlimit:10;" x1="364.185" y1="1286.065" x2="396.883" y2="1286.065"/>
			
				<line style="fill:#DCDDDE;stroke:#2B0000;stroke-width:6.0595;stroke-linecap:round;stroke-linejoin:round;stroke-miterlimit:10;" x1="364.185" y1="1271.823" x2="388.17" y2="1271.823"/>
			
				<line style="fill:#DCDDDE;stroke:#2B0000;stroke-width:6.0595;stroke-linecap:round;stroke-linejoin:round;stroke-miterlimit:10;" x1="364.185" y1="1300.305" x2="397.096" y2="1300.305"/>
			
				<line style="fill:#DCDDDE;stroke:#2B0000;stroke-width:6.0595;stroke-linecap:round;stroke-linejoin:round;stroke-miterlimit:10;" x1="364.185" y1="1243.331" x2="396.883" y2="1243.331"/>
			
				<line style="fill:#DCDDDE;stroke:#2B0000;stroke-width:6.0595;stroke-linecap:round;stroke-linejoin:round;stroke-miterlimit:10;" x1="364.185" y1="1257.577" x2="397.096" y2="1257.577"/>
			
				<line style="fill:#DCDDDE;stroke:#2B0000;stroke-width:6.0595;stroke-linecap:round;stroke-linejoin:round;stroke-miterlimit:10;" x1="364.708" y1="1357.274" x2="397.41" y2="1357.274"/>
		</g>
	</g>
	<g>
		<ellipse style="fill:#C0D6B9;" cx="1154.602" cy="1724.856" rx="117.873" ry="36.647"/>
		<g>
			<g>
				
					<line style="fill:none;stroke:#2B0000;stroke-width:5.6729;stroke-linecap:round;stroke-linejoin:round;stroke-miterlimit:10;" x1="1146.08" y1="1093.087" x2="1146.08" y2="1612.604"/>
				<g>
					<g>
						
							<path style="fill:#3FC0BF;stroke:#2B0000;stroke-width:5.6729;stroke-linecap:round;stroke-linejoin:round;stroke-miterlimit:10;" d="
							M1145.48,1096.531c0,0-53.914-17.34-0.224-93.4C1145.257,1003.131,1195.254,1071.708,1145.48,1096.531z"/>
					</g>
				</g>
				<g>
					<g>
						
							<path style="fill:#3FC0BF;stroke:#2B0000;stroke-width:5.6729;stroke-linecap:round;stroke-linejoin:round;stroke-miterlimit:10;" d="
							M1145.676,1138.864c0,0,7.966-56.077,92.014-16.015C1237.689,1122.85,1178.552,1183.722,1145.676,1138.864z"/>
					</g>
				</g>
				<g>
					<g>
						
							<path style="fill:#3FC0BF;stroke:#2B0000;stroke-width:5.6729;stroke-linecap:round;stroke-linejoin:round;stroke-miterlimit:10;" d="
							M1145.759,1138.864c0,0-7.966-56.077-92.017-16.015C1053.742,1122.85,1112.877,1183.722,1145.759,1138.864z"/>
					</g>
				</g>
				<g>
					<g>
						
							<path style="fill:#3FC0BF;stroke:#2B0000;stroke-width:5.6729;stroke-linecap:round;stroke-linejoin:round;stroke-miterlimit:10;" d="
							M1146.206,1205.675c0,0,7.971-56.072,92.02-16.02C1238.226,1189.655,1179.088,1250.532,1146.206,1205.675z"/>
					</g>
				</g>
				<g>
					<g>
						
							<path style="fill:#3FC0BF;stroke:#2B0000;stroke-width:5.6729;stroke-linecap:round;stroke-linejoin:round;stroke-miterlimit:10;" d="
							M1146.299,1205.675c0,0-7.976-56.072-92.019-16.02C1054.28,1189.655,1113.413,1250.532,1146.299,1205.675z"/>
					</g>
				</g>
				<g>
					<g>
						
							<path style="fill:#3FC0BF;stroke:#2B0000;stroke-width:5.6729;stroke-linecap:round;stroke-linejoin:round;stroke-miterlimit:10;" d="
							M1146.742,1272.485c0,0,7.976-56.077,92.019-16.015C1238.761,1256.471,1179.624,1317.343,1146.742,1272.485z"/>
					</g>
				</g>
				<g>
					<g>
						
							<path style="fill:#3FC0BF;stroke:#2B0000;stroke-width:5.6729;stroke-linecap:round;stroke-linejoin:round;stroke-miterlimit:10;" d="
							M1146.83,1272.485c0,0-7.966-56.077-92.014-16.015C1054.816,1256.471,1113.948,1317.343,1146.83,1272.485z"/>
					</g>
				</g>
				<g>
					<g>
						
							<path style="fill:#3FC0BF;stroke:#2B0000;stroke-width:5.6729;stroke-linecap:round;stroke-linejoin:round;stroke-miterlimit:10;" d="
							M1147.283,1339.291c0,0,7.966-56.072,92.014-16.015C1239.297,1323.276,1180.16,1384.153,1147.283,1339.291z"/>
					</g>
				</g>
				<g>
					<g>
						
							<path style="fill:#3FC0BF;stroke:#2B0000;stroke-width:5.6729;stroke-linecap:round;stroke-linejoin:round;stroke-miterlimit:10;" d="
							M1147.366,1339.291c0,0-7.966-56.072-92.014-16.015C1055.353,1323.276,1114.484,1384.153,1147.366,1339.291z"/>
					</g>
				</g>
				<g>
					<g>
						
							<path style="fill:#3FC0BF;stroke:#2B0000;stroke-width:5.6729;stroke-linecap:round;stroke-linejoin:round;stroke-miterlimit:10;" d="
							M1147.814,1406.102c0,0,7.971-56.072,92.014-16.015C1239.828,1390.087,1180.696,1450.959,1147.814,1406.102z"/>
					</g>
				</g>
				<g>
					<g>
						
							<path style="fill:#3FC0BF;stroke:#2B0000;stroke-width:5.6729;stroke-linecap:round;stroke-linejoin:round;stroke-miterlimit:10;" d="
							M1147.907,1406.102c0,0-7.976-56.072-92.019-16.015C1055.889,1390.087,1115.025,1450.959,1147.907,1406.102z"/>
					</g>
				</g>
			</g>
			<g>
				
					<line style="fill:none;stroke:#2B0000;stroke-width:5.6729;stroke-linecap:round;stroke-linejoin:round;stroke-miterlimit:10;" x1="1071.318" y1="1361.216" x2="1071.318" y2="1488.415"/>
				<g>
					
						<path style="fill:#EE4894;stroke:#2B0000;stroke-width:5.6729;stroke-linecap:round;stroke-linejoin:round;stroke-miterlimit:10;" d="
						M1065.654,1322.585l4.026-2.002l3.879,0.009l6.343,3.83c13.315-11.742,36.94-35.216,17.092-43.079
						c-6.052-2.401-10.641,0.288-14.095,5.174c-0.707-7.849-4.322-13.149-13.511-11.653c-4.97,0.804-7.615,3.79-8.774,7.854
						c-3.876-4.39-8.802-5.739-15.035-1.198C1028.313,1294.083,1065.654,1322.585,1065.654,1322.585z"/>
					
						<path style="fill:#EE4894;stroke:#2B0000;stroke-width:5.6729;stroke-linecap:round;stroke-linejoin:round;stroke-miterlimit:10;" d="
						M1077.232,1333.659l-4.024,2.007l-3.878-0.01l-6.348-3.839c-13.309,11.747-36.931,35.221-17.087,43.089
						c6.052,2.396,10.641-0.293,14.098-5.185c0.704,7.854,4.314,13.155,13.508,11.664c4.97-0.813,7.615-3.79,8.774-7.858
						c3.883,4.395,8.799,5.734,15.03,1.203C1114.572,1362.161,1077.232,1333.659,1077.232,1333.659z"/>
					
						<path style="fill:#EE4894;stroke:#2B0000;stroke-width:5.6729;stroke-linecap:round;stroke-linejoin:round;stroke-miterlimit:10;" d="
						M1063.897,1329.971l0.02-4.194l4.313-6.314c-10.975-13.953-33.067-38.864-42.042-19.488c-3.313,7.138,0.926,12.57,7.586,16.575
						c-9.922-0.181-17.322,2.972-15.592,13.632c0.877,5.389,4.309,8.054,8.915,9.047c-4.944,4.088-6.641,9.257-1.688,15.762
						c12.938,16.988,40.629-20.96,40.629-20.96L1063.897,1329.971z"/>
					
						<path style="fill:#EE4894;stroke:#2B0000;stroke-width:5.6729;stroke-linecap:round;stroke-linejoin:round;stroke-miterlimit:10;" d="
						M1124.706,1326.063c-0.877-5.394-4.307-8.054-8.916-9.047c4.945-4.083,6.636-9.258,1.686-15.762
						c-12.93-16.983-40.623,20.96-40.623,20.96l2.134,4.059l-0.015,4.194l-4.316,6.314c10.972,13.953,33.066,38.869,42.046,19.493
						c3.313-7.143-0.921-12.57-7.581-16.58C1119.035,1339.876,1126.436,1336.719,1124.706,1326.063z"/>
					
						<path style="fill:#FDB72E;stroke:#2B0000;stroke-width:5.6729;stroke-linecap:round;stroke-linejoin:round;stroke-miterlimit:10;" d="
						M1090.07,1330.142c0,10.173-8.258,18.426-18.436,18.426c-10.18,0-18.436-8.253-18.436-18.426
						c0-10.183,8.256-18.44,18.436-18.44C1081.813,1311.701,1090.07,1319.959,1090.07,1330.142z"/>
				</g>
			</g>
			<g>
				
					<line style="fill:none;stroke:#2B0000;stroke-width:5.6729;stroke-linecap:round;stroke-linejoin:round;stroke-miterlimit:10;" x1="1214.488" y1="1361.216" x2="1214.488" y2="1488.415"/>
				<g>
					
						<path style="fill:#EE4894;stroke:#2B0000;stroke-width:5.6729;stroke-linecap:round;stroke-linejoin:round;stroke-miterlimit:10;" d="
						M1208.817,1322.585l4.039-2.002l3.873,0.009l6.344,3.83c13.311-11.742,36.939-35.216,17.086-43.079
						c-6.046-2.401-10.641,0.288-14.095,5.174c-0.696-7.849-4.316-13.149-13.505-11.653c-4.975,0.804-7.61,3.79-8.775,7.854
						c-3.878-4.39-8.794-5.739-15.03-1.198C1171.482,1294.083,1208.817,1322.585,1208.817,1322.585z"/>
					
						<path style="fill:#EE4894;stroke:#2B0000;stroke-width:5.6729;stroke-linecap:round;stroke-linejoin:round;stroke-miterlimit:10;" d="
						M1220.403,1333.659l-4.024,2.007l-3.883-0.01l-6.344-3.839c-13.306,11.747-36.935,35.221-17.086,43.089
						c6.056,2.396,10.641-0.293,14.1-5.185c0.701,7.854,4.316,13.155,13.51,11.664c4.965-0.813,7.605-3.79,8.77-7.858
						c3.879,4.395,8.8,5.734,15.031,1.203C1257.742,1362.161,1220.403,1333.659,1220.403,1333.659z"/>
					
						<path style="fill:#EE4894;stroke:#2B0000;stroke-width:5.6729;stroke-linecap:round;stroke-linejoin:round;stroke-miterlimit:10;" d="
						M1207.068,1329.971l0.02-4.194l4.312-6.314c-10.972-13.953-33.062-38.864-42.046-19.488c-3.308,7.138,0.926,12.57,7.591,16.575
						c-9.925-0.181-17.325,2.972-15.591,13.632c0.877,5.389,4.308,8.054,8.916,9.047c-4.95,4.088-6.641,9.257-1.686,15.762
						c12.936,16.988,40.623-20.96,40.623-20.96L1207.068,1329.971z"/>
					
						<path style="fill:#EE4894;stroke:#2B0000;stroke-width:5.6729;stroke-linecap:round;stroke-linejoin:round;stroke-miterlimit:10;" d="
						M1267.872,1326.063c-0.872-5.394-4.303-8.054-8.916-9.047c4.95-4.083,6.65-9.258,1.69-15.762
						c-12.931-16.983-40.623,20.96-40.623,20.96l2.134,4.059l-0.015,4.194l-4.312,6.314c10.972,13.953,33.062,38.869,42.041,19.493
						c3.313-7.143-0.926-12.57-7.586-16.58C1262.205,1339.876,1269.602,1336.719,1267.872,1326.063z"/>
					
						<path style="fill:#FDB72E;stroke:#2B0000;stroke-width:5.6729;stroke-linecap:round;stroke-linejoin:round;stroke-miterlimit:10;" d="
						M1233.246,1330.142c0,10.173-8.263,18.426-18.445,18.426c-10.173,0-18.437-8.253-18.437-18.426
						c0-10.183,8.264-18.44,18.437-18.44C1224.983,1311.701,1233.246,1319.959,1233.246,1330.142z"/>
				</g>
			</g>
			
				<polygon style="fill:#82449A;stroke:#2B0000;stroke-width:5.6729;stroke-linecap:round;stroke-linejoin:round;stroke-miterlimit:10;" points="
				1226.035,1725.904 1076.385,1725.904 1037.182,1483.895 1262.707,1483.895 			"/>
			<path style="fill:#662361;" d="M1248.145,1483.895c-0.409,2.621-30.626,159.043-37.334,173.255
				c-12.921,27.347-36.098,39.596-65.607,39.829c-23.941,0.2-49.291,2.592-73.52-0.107l4.701,29.033h149.65l36.672-242.01H1248.145z
				"/>
			
				<rect x="1026.912" y="1464.912" style="fill:#82449A;stroke:#2B0000;stroke-width:5.6729;stroke-linecap:round;stroke-linejoin:round;stroke-miterlimit:10;" width="246.075" height="43.391"/>
			
				<line style="fill:none;stroke:#2B0000;stroke-width:5.6729;stroke-linecap:round;stroke-linejoin:round;stroke-miterlimit:10;" x1="1050.688" y1="1556.888" x2="1092.268" y2="1556.888"/>
			
				<line style="fill:none;stroke:#2B0000;stroke-width:5.6729;stroke-linecap:round;stroke-linejoin:round;stroke-miterlimit:10;" x1="1052.273" y1="1572.234" x2="1084.137" y2="1572.234"/>
			
				<line style="fill:none;stroke:#2B0000;stroke-width:5.6729;stroke-linecap:round;stroke-linejoin:round;stroke-miterlimit:10;" x1="1054.982" y1="1587.591" x2="1101.306" y2="1587.591"/>
			
				<line style="fill:none;stroke:#2B0000;stroke-width:5.6729;stroke-linecap:round;stroke-linejoin:round;stroke-miterlimit:10;" x1="1059.277" y1="1602.938" x2="1100.857" y2="1602.938"/>
			
				<line style="fill:none;stroke:#2B0000;stroke-width:5.6729;stroke-linecap:round;stroke-linejoin:round;stroke-miterlimit:10;" x1="1060.857" y1="1618.295" x2="1092.716" y2="1618.295"/>
			
				<line style="fill:none;stroke:#2B0000;stroke-width:5.6729;stroke-linecap:round;stroke-linejoin:round;stroke-miterlimit:10;" x1="1063.571" y1="1633.642" x2="1109.896" y2="1633.642"/>
			
				<line style="fill:none;stroke:#2B0000;stroke-width:5.6729;stroke-linecap:round;stroke-linejoin:round;stroke-miterlimit:10;" x1="1065.715" y1="1648.989" x2="1107.293" y2="1648.989"/>
			
				<line style="fill:none;stroke:#2B0000;stroke-width:5.6729;stroke-linecap:round;stroke-linejoin:round;stroke-miterlimit:10;" x1="1067.301" y1="1664.346" x2="1099.167" y2="1664.346"/>
			
				<line style="fill:none;stroke:#2B0000;stroke-width:5.6729;stroke-linecap:round;stroke-linejoin:round;stroke-miterlimit:10;" x1="1070.013" y1="1679.692" x2="1116.331" y2="1679.692"/>
		</g>
	</g>
	<g>
		<path style="fill:#C0D6B9;" d="M1802.985,1885.858c0,35.113-91.542,63.576-204.471,63.576
			c-112.925,0-204.471-28.463-204.471-63.576c0-35.107,91.546-63.57,204.471-63.57
			C1711.443,1822.288,1802.985,1850.751,1802.985,1885.858z"/>
		<g>
			<g>
				
					<path style="fill:#CC8357;stroke:#2B0000;stroke-width:6.2096;stroke-linecap:round;stroke-linejoin:round;stroke-miterlimit:10;" d="
					M1482.705,1176.32c16.634,191.59,34.173,616.272,36.424,656.876c-5.998,2.797-95.024,44.789-83.653,67.707
					c11.172,22.514,143.39-36.087,143.39-36.087l8.204-688.496H1482.705z"/>
			</g>
			<g>
				
					<path style="fill:#CC8357;stroke:#2B0000;stroke-width:6.2096;stroke-linecap:round;stroke-linejoin:round;stroke-miterlimit:10;" d="
					M1680.838,1832.295c4.516-54.294,16.404-468.867,29.52-655.975h-104.306l16.516,687.857c0,0,136.043,58.597,147.215,36.083
					C1781.528,1876.621,1681.412,1832.549,1680.838,1832.295z"/>
			</g>
			<g>
				<g>
					<g>
						<path style="fill:#2B0000;" d="M1519.129,1833.196c-5.998,2.797-95.024,44.789-83.653,67.707
							c11.172,22.514,143.39-36.087,143.39-36.087l0.137-31.177C1579.002,1833.64,1556.989,1850.088,1519.129,1833.196z"/>
						
							<path style="fill:none;stroke:#2B0000;stroke-width:6.2096;stroke-linecap:round;stroke-linejoin:round;stroke-miterlimit:10;" d="
							M1519.129,1833.196c-5.998,2.797-95.024,44.789-83.653,67.707c11.172,22.514,143.39-36.087,143.39-36.087l0.137-31.177
							C1579.002,1833.64,1556.989,1850.088,1519.129,1833.196z"/>
					</g>
				</g>
			</g>
			<g>
				<g>
					<g>
						<path style="fill:#2B0000;" d="M1680.838,1832.295c-36.58,14.319-59.045-0.506-59.045-0.506l0.774,32.389
							c0,0,136.043,58.597,147.215,36.083C1781.528,1876.621,1683.308,1833.523,1680.838,1832.295z"/>
						
							<path style="fill:none;stroke:#2B0000;stroke-width:6.2096;stroke-linecap:round;stroke-linejoin:round;stroke-miterlimit:10;" d="
							M1680.838,1832.295c-36.58,14.319-59.045-0.506-59.045-0.506l0.774,32.389c0,0,136.043,58.597,147.215,36.083
							C1781.528,1876.621,1683.308,1833.523,1680.838,1832.295z"/>
					</g>
				</g>
			</g>
			
				<path style="fill:#FDB72E;stroke:#2B0000;stroke-width:6.2096;stroke-linecap:round;stroke-linejoin:round;stroke-miterlimit:10;" d="
				M1563.23,816.132c0,0-24.106-3.933-53.978,19.649c-26.23,20.711-29.349,53.775-25.003,143.462
				c2.056,42.514-9.267,147.344-9.267,196.454c0,0,98.226,35.215,238.151,4.638c0,0,3.878-122.239,5.563-194.604
				c1.56-66.783,1.208-128.203-20.277-145.496c-22.227-17.891-55.425-25.182-85.417-24.629L1563.23,816.132z"/>
			<path style="fill:#FAA424;" d="M1698.421,840.234c-7.074-5.693-15.265-10.305-24.117-13.944
				c9.521,40.222,11.001,82.983,16.137,123.398c5.583,43.887,11.81,91.859-0.76,135.15c-12.639,43.527-43.479,67.917-88.141,74.026
				c-40.75,5.578-85.549,4.127-125.89-8.195c-0.419,9.296-0.667,17.783-0.667,25.028c0,0,98.226,35.215,238.151,4.638
				c0,0,3.878-122.239,5.563-194.604C1720.258,918.947,1719.906,857.527,1698.421,840.234z"/>
			
				<path style="fill:#CC8357;stroke:#2B0000;stroke-width:6.2096;stroke-linecap:round;stroke-linejoin:round;stroke-miterlimit:10;" d="
				M1621.656,817.834c5.993,13.679-65.495,13.783-59.741,0c9.306-22.275-0.258-67.336-0.258-67.336h59.736
				C1621.394,750.498,1607.767,786.132,1621.656,817.834z"/>
			
				<path style="fill:#CC8357;stroke:#2B0000;stroke-width:6.2096;stroke-linecap:round;stroke-linejoin:round;stroke-miterlimit:10;" d="
				M1727.736,677.414c0,16.807-16.229,27.023-28.234,27.023c-12.014,0-10.874-12.885-10.874-27.684
				c0-14.807,4.243-27.366,16.146-29.006C1723.892,645.112,1727.736,655.658,1727.736,677.414z"/>
			
				<path style="fill:#CC8357;stroke:#2B0000;stroke-width:6.2096;stroke-linecap:round;stroke-linejoin:round;stroke-miterlimit:10;" d="
				M1454.457,677.414c0,16.807,16.224,27.023,28.229,27.023c12.02,0,10.885-12.885,10.885-27.684
				c0-14.807-4.254-27.366-16.151-29.006C1458.306,645.112,1454.457,655.658,1454.457,677.414z"/>
			
				<path style="fill:#CC8357;stroke:#2B0000;stroke-width:6.2096;stroke-linecap:round;stroke-linejoin:round;stroke-miterlimit:10;" d="
				M1707.678,646.498c11.912,127.071-116.335,148.922-116.335,148.922s-129.636-36.423-117.027-149.73
				c9.033-81.132,38.675-146.488,117.027-146.488C1665.739,499.201,1700.058,565.174,1707.678,646.498z"/>
			<path style="fill:#2B0000;" d="M1647.118,660.516c0,8.684-4.809,15.727-10.743,15.727c-5.93,0-10.738-7.043-10.738-15.727
				c0-8.688,4.809-15.723,10.738-15.723C1642.31,644.793,1647.118,651.828,1647.118,660.516z"/>
			<path style="fill:#2B0000;" d="M1554.427,658.44c0,8.685-4.809,15.723-10.743,15.723c-5.934,0-10.747-7.037-10.747-15.723
				c0-8.69,4.813-15.725,10.747-15.725C1549.618,642.715,1554.427,649.75,1554.427,658.44z"/>
			<g>
				<path style="fill:#2B0000;" d="M1618.611,631.101c3.196-2.738,7.201-4.282,11.255-5.201c4.078-0.94,8.316-1.05,12.478-0.638
					c8.292,1.006,16.341,4.398,22.148,10.348c-8.132-1.578-15.357-3.408-22.846-4.18c-3.717-0.485-7.454-0.644-11.259-0.732
					C1626.577,630.684,1622.733,630.769,1618.611,631.101z"/>
			</g>
			<g>
				<path style="fill:#2B0000;" d="M1559.333,631.498c-8.316-0.301-15.922-0.904-23.469-0.436
					c-3.761,0.161-7.459,0.665-11.147,1.436c-3.702,0.795-7.322,2.013-11.269,3.506c2.314-3.518,5.788-6.277,9.671-8.08
					c3.883-1.888,8.165-2.768,12.404-3.057c4.248-0.171,8.487,0.224,12.521,1.347
					C1552.073,627.301,1555.981,628.92,1559.333,631.498z"/>
			</g>
			
				<path style="fill:#82449A;stroke:#2B0000;stroke-width:6.2096;stroke-linecap:round;stroke-linejoin:round;stroke-miterlimit:10;" d="
				M1474.983,1175.697c0,0,29.651,618.406,29.651,645.587l81.548,0.078l9.271-538.787l16.678,539.941l82.474-0.687l18.529-641.495
				C1713.135,1180.335,1602.865,1207.205,1474.983,1175.697z"/>
			<path style="fill:#662361;" d="M1580.01,1378.95c-2.241,25.763-11.717,370.198-14.996,390.607
				c-2.241,13.949-8.623,30.489-22.845,36.297c-12.195,4.979-25.019,4.341-37.871,3.61c0.225,6.07,0.337,10.114,0.337,11.819
				l81.548,0.078l6.49-497.087C1589.092,1339.111,1581.286,1364.168,1580.01,1378.95z"/>
			<path style="fill:#662361;" d="M1677.48,1804.208c-15.22-1.389-30.723-7.801-36.93-21.842
				c-6.48-14.66-19.245-417.633-42.012-465.477c-0.688,1.808-1.277,3.669-1.856,5.524l15.449,500.103l82.474-0.687l0.482-16.828
				C1689.223,1804.943,1683.356,1804.744,1677.48,1804.208z"/>
			<path style="fill:#2B0000;" d="M1506.49,581.697c0,0,74.83,35.201,142.479,3.693c29.008-13.508,20.696-33.668,62.089-49.115
				c0,0-26.484-37.695-92.666-45.096c-54.825-6.127-125.184,12.525-132.291,65.961L1506.49,581.697z"/>
			<path style="fill:#2B0000;" d="M1507.411,580.465c0,0,6.495,55.291-34.898,77.531c0,0-18.377-50.133,16.059-110.893
				L1507.411,580.465z"/>
			<path style="fill:#2B0000;" d="M1664.726,569.637c0,0,2.933,67.359,44.326,89.598c0,0,16.521-42.027-24.561-112.455
				L1664.726,569.637z"/>
			<path style="fill:#C16246;" d="M1539.09,704.342c0,11.279-8.73,20.422-19.493,20.422c-10.768,0-19.493-9.143-19.493-20.422
				c0-11.278,8.726-20.421,19.493-20.421C1530.359,683.921,1539.09,693.063,1539.09,704.342z"/>
			<path style="fill:#C16246;" d="M1677.354,706.063c0,11.278-8.73,20.421-19.498,20.421c-10.762,0-19.497-9.143-19.497-20.421
				c0-11.277,8.735-20.422,19.497-20.422C1668.623,685.641,1677.354,694.785,1677.354,706.063z"/>
			<path style="fill:#2B0000;" d="M1488.42,643.076c0,0,7.645,95.215,62.017,97.068c0,0,38.918-33.976,80.925,0
				c0,0,45.715,9.27,64.867-90.81l14.207,8.029c0,0,13.12,123.846-121.081,141.473c0,0-118.001-19.768-117.378-143.945
				L1488.42,643.076z"/>
			<g>
				
					<path style="fill:none;stroke:#CC8357;stroke-width:6.2096;stroke-linecap:round;stroke-linejoin:round;stroke-miterlimit:10;" d="
					M1607.04,739.623c-0.857,7.462-8.155,13.286-17.032,13.286c-9.452,0-17.116-6.608-17.116-14.767c0-0.047,0-0.096,0-0.146"/>
				
					<path style="fill:none;stroke:#2B0000;stroke-width:6.2096;stroke-linecap:round;stroke-linejoin:round;stroke-miterlimit:10;" d="
					M1581.258,705.709c2.217-2.665,5.744-4.391,9.715-4.391c4.263,0,8.019,1.998,10.183,5.017"/>
			</g>
			<g>
				
					<path style="fill:#CC8357;stroke:#2B0000;stroke-width:6.2096;stroke-linecap:round;stroke-linejoin:round;stroke-miterlimit:10;" d="
					M1357.941,1047.679l77.559-143.404c6.772-12.517,22.406-17.187,34.938-10.411c12.517,6.772,17.179,22.416,10.406,34.938
					l-71.259,131.76l54.09,129.114c0,0,38.358,31.917,39.698,32.823l17.485,8.19c3.625,1.695,5.043,5.938,3.498,9.632
					c-1.963,4.643-7.439,4.248-7.439,4.248c-6.89-0.75-22.587-10.017-22.967-9.734c-0.103,0.098,16.365,20.906,19.893,38.119
					c2.129,10.47-7.771,20.434-12.716,23.152c-10.606,5.818-24.673,6.768-33.242-6.538c0,0-12.38-18.582-15.98-25.705
					c-6.095-12-9.617-29.34-11.279-38.928c-1.904-11.05-4.789-16.604-5.919-18.826c-0.195-0.248-77.267-134.878-77.267-134.878
					C1353.8,1063.759,1353.99,1054.994,1357.941,1047.679z"/>
				<g>
					
						<path style="fill:#FDB72E;stroke:#2B0000;stroke-width:6.2096;stroke-linecap:round;stroke-linejoin:round;stroke-miterlimit:10;" d="
						M1461.838,993.916l65.963-103.098c13.194-23.177,11.396-48.877-6.504-60.779c-17.905-11.905-39.503-8.285-57.715,18.818
						l-66.562,101.947L1461.838,993.916z"/>
					<path style="fill:#FAA424;" d="M1517.608,865.593c-14.587,19.731-22.051,41.938-33.174,63.474
						c-6.928,13.422-20.799,34.506-38.962,31.836c-16.268-2.402-26.889-14.975-41.13-21.314l-7.322,11.217l64.817,43.111
						l65.963-103.098c8.823-15.498,10.904-32.108,5.983-44.979C1528.176,852.238,1522.676,858.738,1517.608,865.593z"/>
				</g>
			</g>
			<g>
				
					<path style="fill:#CC8357;stroke:#2B0000;stroke-width:6.2096;stroke-linecap:round;stroke-linejoin:round;stroke-miterlimit:10;" d="
					M1829.845,1044.273l-77.559-143.404c-6.772-12.521-22.411-17.186-34.933-10.414c-12.521,6.774-17.184,22.416-10.416,34.938
					l71.264,131.762l-54.095,129.115c0,0-38.354,31.912-39.693,32.823l-17.485,8.189c-3.625,1.695-5.043,5.939-3.498,9.628
					c1.958,4.647,7.439,4.253,7.439,4.253c6.89-0.75,22.587-10.017,22.967-9.734c0.103,0.093-16.365,20.906-19.893,38.114
					c-2.134,10.465,7.776,20.443,12.711,23.157c10.606,5.816,24.673,6.762,33.247-6.544c0,0,12.38-18.582,15.976-25.7
					c6.1-12,9.617-29.344,11.279-38.933c1.904-11.05,4.799-16.604,5.924-18.82c0.195-0.249,77.267-134.883,77.267-134.883
					C1833.986,1060.349,1833.796,1051.586,1829.845,1044.273z"/>
				<g>
					
						<path style="fill:#FDB72E;stroke:#2B0000;stroke-width:6.2096;stroke-linecap:round;stroke-linejoin:round;stroke-miterlimit:10;" d="
						M1725.943,990.508L1659.98,887.41c-13.193-23.177-11.387-48.882,6.509-60.777c17.9-11.904,39.503-8.287,57.715,18.816
						l66.562,101.95L1725.943,990.508z"/>
					<path style="fill:#FAA424;" d="M1670.178,862.185c14.582,19.731,22.046,41.938,33.169,63.476
						c6.933,13.418,20.799,34.504,38.962,31.83c16.268-2.397,26.889-14.973,41.135-21.309l7.322,11.218l-64.822,43.108
						L1659.98,887.41c-8.818-15.501-10.899-32.108-5.983-44.977C1659.61,848.83,1665.11,855.33,1670.178,862.185z"/>
				</g>
			</g>
		</g>
	</g>
	<g>
		<g>
			
				<path style="fill:#DCDDDE;stroke:#2B0000;stroke-width:3.3189;stroke-linecap:round;stroke-linejoin:round;stroke-miterlimit:10;" d="
				M472.549,1011.021v79.921h-12.506c0,0-5.786-8.02-5.786-38.985c0-29.521,5.786-40.936,5.786-40.936H472.549z"/>
			
				<path style="fill:#82449A;stroke:#2B0000;stroke-width:3.3189;stroke-linecap:round;stroke-linejoin:round;stroke-miterlimit:10;" d="
				M797.928,1011.043c0,0,7.932,12.908,7.932,39.646c0,28.268-7.932,40.253-7.932,40.253H460.043c0,0,7.697-18.85,7.697-40.564
				c0-23.761-7.697-39.335-7.697-39.335H797.928z"/>
			<g>
				<g>
					<g>
						<rect x="714.573" y="1011.312" style="fill:#FDB72E;" width="7.723" height="79.89"/>
						
							<rect x="714.573" y="1011.312" style="fill:none;stroke:#2B0000;stroke-width:3.3189;stroke-linecap:round;stroke-linejoin:round;stroke-miterlimit:10;" width="7.723" height="79.89"/>
					</g>
					<g>
						<rect x="747.701" y="1011.312" style="fill:#3FC0BF;" width="22.224" height="79.89"/>
						
							<rect x="747.701" y="1011.312" style="fill:none;stroke:#2B0000;stroke-width:3.3189;stroke-linecap:round;stroke-linejoin:round;stroke-miterlimit:10;" width="22.224" height="79.89"/>
					</g>
					
						<rect x="728.48" y="1011.312" style="fill:#85C554;stroke:#2B0000;stroke-width:3.3189;stroke-linecap:round;stroke-linejoin:round;stroke-miterlimit:10;" width="11.915" height="79.89"/>
				</g>
			</g>
			<g>
				<g>
					<g>
						<rect x="539.698" y="1010.69" style="fill:#FDB72E;" width="7.729" height="79.893"/>
						
							<rect x="539.698" y="1010.69" style="fill:none;stroke:#2B0000;stroke-width:3.3189;stroke-linecap:round;stroke-linejoin:round;stroke-miterlimit:10;" width="7.729" height="79.893"/>
					</g>
					<g>
						<rect x="492.068" y="1010.685" style="fill:#3FC0BF;" width="22.225" height="79.896"/>
						
							<rect x="492.068" y="1010.685" style="fill:none;stroke:#2B0000;stroke-width:3.3189;stroke-linecap:round;stroke-linejoin:round;stroke-miterlimit:10;" width="22.225" height="79.896"/>
					</g>
					
						<rect x="521.604" y="1010.685" style="fill:#85C554;stroke:#2B0000;stroke-width:3.3189;stroke-linecap:round;stroke-linejoin:round;stroke-miterlimit:10;" width="11.91" height="79.896"/>
				</g>
			</g>
			<path style="fill:#743271;" d="M464.568,1024.359c0.363-0.14,0.779-0.215,1.24-0.215c28.884-0.008,57.751-1.033,86.625-1.737
				c31.927-0.792,63.858-0.663,95.795-0.663c16.004,0,32.012,0.106,48.012-0.023c14.864-0.125,69.775-0.205,80.338,4.18
				c8.85,3.674,15.459,10.724,17.088,20.145c3.126,18.043-0.721,33.438-3.295,44.897h7.557c0,0,7.932-11.985,7.932-40.253
				c0-26.738-7.932-39.646-7.932-39.646H460.043C460.043,1011.043,462.441,1015.913,464.568,1024.359z"/>
			<g>
				
					<line style="fill:#DCDDDE;stroke:#2B0000;stroke-width:3.3189;stroke-linecap:round;stroke-linejoin:round;stroke-miterlimit:10;" x1="477.696" y1="1090.007" x2="477.696" y2="1071.265"/>
				
					<line style="fill:#DCDDDE;stroke:#2B0000;stroke-width:3.3189;stroke-linecap:round;stroke-linejoin:round;stroke-miterlimit:10;" x1="469.991" y1="1090.422" x2="469.991" y2="1076.683"/>
				
					<line style="fill:#DCDDDE;stroke:#2B0000;stroke-width:3.3189;stroke-linecap:round;stroke-linejoin:round;stroke-miterlimit:10;" x1="485.613" y1="1090.222" x2="485.613" y2="1056.902"/>
			</g>
			<g>
				
					<line style="fill:#DCDDDE;stroke:#2B0000;stroke-width:3.3189;stroke-linecap:round;stroke-linejoin:round;stroke-miterlimit:10;" x1="695.727" y1="1090.085" x2="695.727" y2="1074.602"/>
				
					<line style="fill:#DCDDDE;stroke:#2B0000;stroke-width:3.3189;stroke-linecap:round;stroke-linejoin:round;stroke-miterlimit:10;" x1="688.023" y1="1090.422" x2="688.023" y2="1079.074"/>
				
					<line style="fill:#DCDDDE;stroke:#2B0000;stroke-width:3.3189;stroke-linecap:round;stroke-linejoin:round;stroke-miterlimit:10;" x1="703.643" y1="1090.256" x2="703.643" y2="1062.727"/>
			</g>
			<g>
				
					<line style="fill:#DCDDDE;stroke:#2B0000;stroke-width:3.3189;stroke-linecap:round;stroke-linejoin:round;stroke-miterlimit:10;" x1="564.231" y1="1090.085" x2="564.231" y2="1074.602"/>
				
					<line style="fill:#DCDDDE;stroke:#2B0000;stroke-width:3.3189;stroke-linecap:round;stroke-linejoin:round;stroke-miterlimit:10;" x1="571.94" y1="1090.422" x2="571.94" y2="1079.074"/>
				
					<line style="fill:#DCDDDE;stroke:#2B0000;stroke-width:3.3189;stroke-linecap:round;stroke-linejoin:round;stroke-miterlimit:10;" x1="556.319" y1="1090.256" x2="556.319" y2="1062.727"/>
			</g>
			<g>
				
					<line style="fill:#DCDDDE;stroke:#2B0000;stroke-width:3.3189;stroke-linecap:round;stroke-linejoin:round;stroke-miterlimit:10;" x1="785.394" y1="1090.393" x2="785.394" y2="1074.914"/>
				
					<line style="fill:#DCDDDE;stroke:#2B0000;stroke-width:3.3189;stroke-linecap:round;stroke-linejoin:round;stroke-miterlimit:10;" x1="777.685" y1="1090.738" x2="777.685" y2="1079.386"/>
				
					<line style="fill:#DCDDDE;stroke:#2B0000;stroke-width:3.3189;stroke-linecap:round;stroke-linejoin:round;stroke-miterlimit:10;" x1="793.309" y1="1090.572" x2="793.309" y2="1063.04"/>
			</g>
			<g>
				<path style="fill:#FFFFFF;" d="M565.865,1076.36c1.484,0,2.683,1.744,2.683,3.889l0,0c0,2.148-1.198,3.888-2.683,3.888h-78.803
					c-1.48,0-2.69-1.739-2.69-3.888l0,0c0-2.145,1.209-3.889,2.69-3.889H565.865z"/>
				<path style="fill:#FFFFFF;" d="M592.46,1076.521c2.078,0,3.751,1.793,3.751,4.01l0,0c0,2.222-1.673,4.01-3.751,4.01h-17.108
					c-2.078,0-3.756-1.788-3.756-4.01l0,0c0-2.217,1.678-4.01,3.756-4.01H592.46z"/>
			</g>
		</g>
		<g>
			
				<path style="fill:#DCDDDE;stroke:#2B0000;stroke-width:3.3189;stroke-linecap:round;stroke-linejoin:round;stroke-miterlimit:10;" d="
				M400.105,1088.127v79.921H387.6c0,0-5.775-8.02-5.775-38.982c0-29.524,5.775-40.939,5.775-40.939H400.105z"/>
			
				<path style="fill:#85C554;stroke:#2B0000;stroke-width:3.3189;stroke-linecap:round;stroke-linejoin:round;stroke-miterlimit:10;" d="
				M725.479,1088.156c0,0,7.939,12.901,7.939,39.639c0,28.277-7.939,40.253-7.939,40.253H387.6c0,0,7.693-18.84,7.693-40.56
				c0-23.762-7.693-39.332-7.693-39.332H725.479z"/>
			<path style="fill:#679A44;" d="M391.277,1098.319c33.123-0.112,302.529-2.407,311.498,1.793
				c7.886,3.692,12.355,14.815,13.715,22.898c1.617,9.568,1.77,19.479,0.58,29.101c-0.641,5.198-1.513,10.885-3.574,15.937h11.983
				c0,0,7.939-11.976,7.939-40.253c0-26.737-7.939-39.639-7.939-39.639H387.6C387.6,1088.156,389.412,1091.824,391.277,1098.319z"/>
			<g>
				
					<rect x="430.014" y="1110.227" style="fill:#FDB72E;stroke:#2B0000;stroke-width:3.3189;stroke-linecap:round;stroke-linejoin:round;stroke-miterlimit:10;" width="262.107" height="36.823"/>
				<path style="fill:#CC8357;" d="M430.014,1118.036c11.205,0.024,202.107-1.159,214.115-0.804
					c6.867,0.2,14.964-0.034,21.422,1.744c6.502,1.783,9.082,5.856,9.995,10.192c1.247,5.871,0.526,11.922,0.229,17.881h16.346
					v-36.823H430.014V1118.036z"/>
			</g>
			<g>
				
					<line style="fill:#DCDDDE;stroke:#2B0000;stroke-width:3.3189;stroke-linecap:round;stroke-linejoin:round;stroke-miterlimit:10;" x1="410.988" y1="1167.049" x2="410.988" y2="1148.302"/>
				
					<line style="fill:#DCDDDE;stroke:#2B0000;stroke-width:3.3189;stroke-linecap:round;stroke-linejoin:round;stroke-miterlimit:10;" x1="403.275" y1="1167.463" x2="403.275" y2="1153.715"/>
				
					<line style="fill:#DCDDDE;stroke:#2B0000;stroke-width:3.3189;stroke-linecap:round;stroke-linejoin:round;stroke-miterlimit:10;" x1="418.895" y1="1167.259" x2="418.895" y2="1133.934"/>
			</g>
			<g>
				
					<line style="fill:#DCDDDE;stroke:#2B0000;stroke-width:3.3189;stroke-linecap:round;stroke-linejoin:round;stroke-miterlimit:10;" x1="548.813" y1="1167.521" x2="548.813" y2="1151.503"/>
				
					<line style="fill:#DCDDDE;stroke:#2B0000;stroke-width:3.3189;stroke-linecap:round;stroke-linejoin:round;stroke-miterlimit:10;" x1="540.381" y1="1167.521" x2="540.381" y2="1153.773"/>
				
					<line style="fill:#DCDDDE;stroke:#2B0000;stroke-width:3.3189;stroke-linecap:round;stroke-linejoin:round;stroke-miterlimit:10;" x1="557.252" y1="1167.521" x2="557.252" y2="1153.773"/>
			</g>
			<g>
				
					<line style="fill:#DCDDDE;stroke:#2B0000;stroke-width:3.3189;stroke-linecap:round;stroke-linejoin:round;stroke-miterlimit:10;" x1="703.986" y1="1166.908" x2="703.986" y2="1151.425"/>
				
					<line style="fill:#DCDDDE;stroke:#2B0000;stroke-width:3.3189;stroke-linecap:round;stroke-linejoin:round;stroke-miterlimit:10;" x1="696.281" y1="1167.259" x2="696.281" y2="1155.898"/>
				
					<line style="fill:#DCDDDE;stroke:#2B0000;stroke-width:3.3189;stroke-linecap:round;stroke-linejoin:round;stroke-miterlimit:10;" x1="711.898" y1="1167.083" x2="711.898" y2="1139.552"/>
			</g>
			<g>
				<path style="fill:#FFFFFF;" d="M496.761,1154.017c1.479,0,2.685,1.744,2.685,3.893l0,0c0,2.148-1.206,3.888-2.685,3.888h-78.804
					c-1.486,0-2.687-1.739-2.687-3.888l0,0c0-2.148,1.2-3.893,2.687-3.893H496.761z"/>
				<path style="fill:#FFFFFF;" d="M523.359,1154.177c2.07,0,3.747,1.798,3.747,4.015l0,0c0,2.212-1.677,4.02-3.747,4.02h-17.11
					c-2.073,0-3.757-1.808-3.757-4.02l0,0c0-2.217,1.684-4.015,3.757-4.015H523.359z"/>
			</g>
		</g>
		<g>
			
				<path style="fill:#DCDDDE;stroke:#2B0000;stroke-width:3.3189;stroke-linecap:round;stroke-linejoin:round;stroke-miterlimit:10;" d="
				M733.129,1016.437v-79.919H492.712c0,0-9.925,8.02-9.925,38.984c0,29.519,9.925,40.935,9.925,40.935H733.129z"/>
			<path style="fill:#C0C2C4;" d="M704.099,936.518c6.701,6.855,11.035,59.352-1.599,65.105c-7.363,3.34-29.86,1.457-37.722,1.348
				c-11.298-0.156-161.294-0.875-178.593-0.648c2.869,9.897,6.526,14.114,6.526,14.114h240.417v-79.919H704.099z"/>
			
				<path style="fill:#EE4894;stroke:#2B0000;stroke-width:3.3189;stroke-linecap:round;stroke-linejoin:round;stroke-miterlimit:10;" d="
				M835.934,1016.414c0,0,2.6-12.908,2.6-39.643c0-28.273-2.6-40.254-2.6-40.254H725.351c0,0,4.718,16.383,4.718,38.104
				c0,23.761-4.718,41.792-4.718,41.792H835.934z"/>
			<g>
				
					<line style="fill:#DCDDDE;stroke:#2B0000;stroke-width:3.3189;stroke-linecap:round;stroke-linejoin:round;stroke-miterlimit:10;" x1="484.994" y1="996.101" x2="500.541" y2="996.101"/>
				
					<line style="fill:#DCDDDE;stroke:#2B0000;stroke-width:3.3189;stroke-linecap:round;stroke-linejoin:round;stroke-miterlimit:10;" x1="484.032" y1="988.981" x2="498.174" y2="988.981"/>
				
					<line style="fill:#DCDDDE;stroke:#2B0000;stroke-width:3.3189;stroke-linecap:round;stroke-linejoin:round;stroke-miterlimit:10;" x1="487.382" y1="1003.229" x2="511.064" y2="1003.229"/>
				
					<line style="fill:#DCDDDE;stroke:#2B0000;stroke-width:3.3189;stroke-linecap:round;stroke-linejoin:round;stroke-miterlimit:10;" x1="483.27" y1="974.736" x2="501.121" y2="974.736"/>
				
					<line style="fill:#DCDDDE;stroke:#2B0000;stroke-width:3.3189;stroke-linecap:round;stroke-linejoin:round;stroke-miterlimit:10;" x1="483.486" y1="967.611" x2="498.748" y2="967.611"/>
				
					<line style="fill:#DCDDDE;stroke:#2B0000;stroke-width:3.3189;stroke-linecap:round;stroke-linejoin:round;stroke-miterlimit:10;" x1="483.362" y1="981.862" x2="502.953" y2="981.862"/>
				
					<line style="fill:#DCDDDE;stroke:#2B0000;stroke-width:3.3189;stroke-linecap:round;stroke-linejoin:round;stroke-miterlimit:10;" x1="486.217" y1="953.37" x2="502.86" y2="953.37"/>
				
					<line style="fill:#DCDDDE;stroke:#2B0000;stroke-width:3.3189;stroke-linecap:round;stroke-linejoin:round;stroke-miterlimit:10;" x1="484.314" y1="960.49" x2="500.482" y2="960.49"/>
				
					<line style="fill:#DCDDDE;stroke:#2B0000;stroke-width:3.3189;stroke-linecap:round;stroke-linejoin:round;stroke-miterlimit:10;" x1="488.389" y1="946.25" x2="513.382" y2="946.25"/>
			</g>
			<g>
				
					<line style="fill:#DCDDDE;stroke:#2B0000;stroke-width:3.3189;stroke-linecap:round;stroke-linejoin:round;stroke-miterlimit:10;" x1="729.406" y1="1001.859" x2="749.227" y2="1001.859"/>
				
					<line style="fill:#DCDDDE;stroke:#2B0000;stroke-width:3.3189;stroke-linecap:round;stroke-linejoin:round;stroke-miterlimit:10;" x1="731.082" y1="994.271" x2="750.334" y2="994.271"/>
				
					<line style="fill:#DCDDDE;stroke:#2B0000;stroke-width:3.3189;stroke-linecap:round;stroke-linejoin:round;stroke-miterlimit:10;" x1="730.99" y1="979.092" x2="751.133" y2="979.092"/>
				
					<line style="fill:#DCDDDE;stroke:#2B0000;stroke-width:3.3189;stroke-linecap:round;stroke-linejoin:round;stroke-miterlimit:10;" x1="731.813" y1="971.504" x2="751.074" y2="971.504"/>
				
					<line style="fill:#DCDDDE;stroke:#2B0000;stroke-width:3.3189;stroke-linecap:round;stroke-linejoin:round;stroke-miterlimit:10;" x1="730.842" y1="986.681" x2="755.689" y2="986.681"/>
				
					<line style="fill:#DCDDDE;stroke:#2B0000;stroke-width:3.3189;stroke-linecap:round;stroke-linejoin:round;stroke-miterlimit:10;" x1="730.512" y1="956.328" x2="748.8" y2="956.328"/>
				
					<line style="fill:#DCDDDE;stroke:#2B0000;stroke-width:3.3189;stroke-linecap:round;stroke-linejoin:round;stroke-miterlimit:10;" x1="730.557" y1="963.918" x2="749.162" y2="963.918"/>
				
					<line style="fill:#DCDDDE;stroke:#2B0000;stroke-width:3.3189;stroke-linecap:round;stroke-linejoin:round;stroke-miterlimit:10;" x1="729.031" y1="948.742" x2="754.427" y2="948.742"/>
			</g>
			<g>
				
					<rect x="785.613" y="936.297" style="fill:#82449A;stroke:#2B0000;stroke-width:3.3189;stroke-linecap:round;stroke-linejoin:round;stroke-miterlimit:10;" width="33.215" height="79.892"/>
				
					<rect x="796.848" y="936.297" style="fill:#FDB72E;stroke:#2B0000;stroke-width:3.3189;stroke-linecap:round;stroke-linejoin:round;stroke-miterlimit:10;" width="10.743" height="79.892"/>
			</g>
			<path style="fill:#BB5B8E;" d="M727.82,1004.681c0.125,0.134,69.963,0.251,75.201,0.382c4.859,0.125,17.298,0.69,20.76-3.693
				c2.896-3.678,5.059-10.727,5.593-20.144c1.025-18.045-0.236-33.442-1.084-44.896l7.644,0.189c0,0,2.6,11.98,2.6,40.254
				c0,26.734-2.6,39.643-2.6,39.643H725.351C725.351,1016.414,727.127,1013.119,727.82,1004.681z"/>
			<g>
				<path style="fill:#FFFFFF;" d="M790.896,948.71c0.996,0,1.813-1.171,1.813-2.621l0,0c0-1.446-0.816-2.621-1.813-2.621h-53.096
					c-0.994,0-1.807,1.175-1.807,2.621l0,0c0,1.45,0.813,2.621,1.807,2.621H790.896z"/>
				<path style="fill:#FFFFFF;" d="M808.821,948.601c1.391,0,2.526-1.208,2.526-2.702l0,0c0-1.492-1.136-2.703-2.526-2.703h-11.532
					c-1.394,0-2.533,1.211-2.533,2.703l0,0c0,1.494,1.14,2.702,2.533,2.702H808.821z"/>
			</g>
		</g>
		<g>
			
				<path style="fill:#85C554;stroke:#2B0000;stroke-width:3.3189;stroke-linecap:round;stroke-linejoin:round;stroke-miterlimit:10;" d="
				M625.105,755.842c0,0,11.858,16.666,34.362-1.205c0,0,5.566-5.533,9.54-4.303c0,0-17.801-28.443-45.813-4.732L625.105,755.842z"
				/>
			<path style="fill:#2B0000;" d="M623.352,776.727c0.548-5.85,1.345-11.664,2.351-17.423c2.438-13.858,6.062-27.417,10.528-40.623
				l-14.965-3.581c-2.143,14.473-3.317,29.053-3.234,43.566c0.039,6.046,0.311,12.065,0.826,18.061H623.352z"/>
			
				<path style="fill:#EE4894;stroke:#2B0000;stroke-width:3.3189;stroke-linecap:round;stroke-linejoin:round;stroke-miterlimit:10;" d="
				M717.577,842.316c0,54.584-44.255,98.835-98.84,98.835c-54.584,0-98.835-44.251-98.835-98.835
				c0-36.716,8.619-59.039,34.817-71.171c34.46-15.958,50.46,4.168,68.336,4.168c21.768,0,40.988-19.055,63.031-3.936
				C709.092,787.16,717.577,813.992,717.577,842.316z"/>
			<g>
				<g>
					<path style="fill:#FFFFFF;" d="M545.547,808.685c-0.65,0-1.309-0.142-1.93-0.443c-2.224-1.064-3.164-3.728-2.102-5.958
						c4.856-10.148,12.602-17.574,23.68-22.704c7.087-3.281,13.728-5.014,20.291-5.286c2.467-0.093,4.547,1.809,4.648,4.275
						c0.102,2.467-1.81,4.548-4.273,4.652c-5.369,0.227-10.906,1.684-16.912,4.463c-9.234,4.285-15.394,10.148-19.368,18.453
						C548.809,807.742,547.213,808.685,545.547,808.685z"/>
				</g>
				<g>
					<path style="fill:#FFFFFF;" d="M540.154,828.719c-0.184,0-0.361-0.01-0.549-0.029c-2.445-0.303-4.192-2.529-3.893-4.975
						c0.412-3.354,0.969-6.543,1.668-9.477c0.568-2.392,2.978-3.88,5.379-3.311c2.395,0.572,3.879,2.978,3.313,5.379
						c-0.618,2.609-1.123,5.462-1.488,8.492C544.305,827.06,542.383,828.719,540.154,828.719z"/>
				</g>
			</g>
			<path style="fill:#BB5B8E;" d="M693.818,777.596c1.542,5.635,2.846,11.304,3.686,17.105c2.142,14.775,0.724,29.91-3.14,44.28
				c-6.848,25.44-19.239,47.151-40.087,63.64c-20.558,16.268-43.357,25.97-70,22.586c-8.988-1.137-18.816-3.04-28.058-6.348
				c17.038,13.934,38.799,22.292,62.518,22.292c54.585,0,98.84-44.251,98.84-98.835
				C717.577,817.428,711.019,793.698,693.818,777.596z"/>
			<g>
				
					<line style="fill:#DCDDDE;stroke:#2B0000;stroke-width:3.3189;stroke-linecap:round;stroke-linejoin:round;stroke-miterlimit:10;" x1="537.822" y1="896.32" x2="562.321" y2="896.32"/>
				
					<line style="fill:#DCDDDE;stroke:#2B0000;stroke-width:3.3189;stroke-linecap:round;stroke-linejoin:round;stroke-miterlimit:10;" x1="531.961" y1="885.756" x2="561.557" y2="885.756"/>
				
					<line style="fill:#DCDDDE;stroke:#2B0000;stroke-width:3.3189;stroke-linecap:round;stroke-linejoin:round;stroke-miterlimit:10;" x1="546.059" y1="906.889" x2="580.451" y2="906.889"/>
				
					<line style="fill:#DCDDDE;stroke:#2B0000;stroke-width:3.3189;stroke-linecap:round;stroke-linejoin:round;stroke-miterlimit:10;" x1="524.003" y1="864.625" x2="555.17" y2="864.625"/>
				
					<line style="fill:#DCDDDE;stroke:#2B0000;stroke-width:3.3189;stroke-linecap:round;stroke-linejoin:round;stroke-miterlimit:10;" x1="521.698" y1="854.059" x2="556.063" y2="854.059"/>
				
					<line style="fill:#DCDDDE;stroke:#2B0000;stroke-width:3.3189;stroke-linecap:round;stroke-linejoin:round;stroke-miterlimit:10;" x1="527.613" y1="875.191" x2="568.516" y2="875.191"/>
				
					<line style="fill:#DCDDDE;stroke:#2B0000;stroke-width:3.3189;stroke-linecap:round;stroke-linejoin:round;stroke-miterlimit:10;" x1="521.252" y1="832.926" x2="542.658" y2="832.926"/>
				
					<line style="fill:#DCDDDE;stroke:#2B0000;stroke-width:3.3189;stroke-linecap:round;stroke-linejoin:round;stroke-miterlimit:10;" x1="521.172" y1="843.496" x2="544.258" y2="843.496"/>
				
					<line style="fill:#DCDDDE;stroke:#2B0000;stroke-width:3.3189;stroke-linecap:round;stroke-linejoin:round;stroke-miterlimit:10;" x1="556.691" y1="917.451" x2="594.548" y2="917.451"/>
			</g>
		</g>
		<g>
			
				<path style="fill:none;stroke:#2B0000;stroke-width:3.3189;stroke-linecap:round;stroke-linejoin:round;stroke-miterlimit:10;" d="
				M501.16,1088.243c-22.982,18.271-52.082,29.185-83.734,29.185c-74.374,0-134.666-60.295-134.666-134.672
				c0-65.928,47.369-120.791,109.938-132.4"/>
			
				<line style="fill:none;stroke:#2B0000;stroke-width:3.3189;stroke-linecap:round;stroke-linejoin:round;stroke-miterlimit:10;" x1="374.718" y1="856.021" x2="481.618" y2="1100.297"/>
			
				<path style="fill:#3FC0BF;stroke:#2B0000;stroke-width:3.3189;stroke-linecap:round;stroke-linejoin:round;stroke-miterlimit:10;" d="
				M532.275,982.756c0,63.432-51.417,114.852-114.842,114.852c-63.434,0-114.854-51.42-114.854-114.852
				c0-63.43,51.42-114.849,114.854-114.849C480.858,867.907,532.275,919.326,532.275,982.756z"/>
			<path style="fill:#469EBA;" d="M459.939,876.207c21.847,20.91,35.475,50.33,35.475,82.959
				c0,63.432-51.418,114.852-114.845,114.852c-15.868,0-30.98-3.226-44.73-9.035c20.631,19.738,48.577,31.885,79.378,31.885
				c63.432,0,114.85-51.418,114.85-114.847C530.066,934.457,501.15,893.646,459.939,876.207z"/>
			<g>
				<defs>
					<path id="SVGID_1_" d="M530.802,982.756c0,62.613-50.763,113.381-113.368,113.381c-62.615,0-113.375-50.768-113.375-113.381
						c0-62.61,50.76-113.375,113.375-113.375C480.039,869.381,530.802,920.146,530.802,982.756z"/>
				</defs>
				<clipPath id="SVGID_00000098940721283388954630000008686161548353425284_">
					<use xlink:href="#SVGID_1_"  style="overflow:visible;"/>
				</clipPath>
				<g style="clip-path:url(#SVGID_00000098940721283388954630000008686161548353425284_);">
					<g>
						
							<path style="fill:#85C554;stroke:#2B0000;stroke-width:3.3189;stroke-linecap:round;stroke-linejoin:round;stroke-miterlimit:10;" d="
							M551.907,913.023c0,0,3.056-0.941,6.334,1.181c3.288,2.107,1.407,1.162-0.463,4.686c-1.876,3.518-3.288,2.344-2.119,6.334
							c1.179,3.987,1.413,2.111-0.929,4.691c-2.348,2.58-3.049,2.114-3.285,4.926c-0.239,2.813-8.215,2.111-5.871,4.93
							c2.346,2.809,4.463,7.974,2.346,11.491c-2.107,3.515-5.63,0.702-4.921-3.284c0.699-3.984,3.515-12.199-0.47-11.264
							c-3.988,0.939-0.473-1.167-2.818,3.52c-2.347,4.695-9.85-1.405-9.148,3.053c0.705,4.458,3.988,6.801,5.861,9.617
							c1.881,2.815,2.117,8.209-0.47,11.265c-2.577,3.042-5.157,7.028-3.516,10.323c1.647,3.279,0.239,6.566-2.346,6.566
							c-2.577,0-5.63-9.62-9.149-2.582c-3.516,7.035,8.447,2.814,2.351,10.794c-6.102,7.973-10.56,3.516-9.62,9.143
							c0.94,5.632,5.394,7.973,1.879,11.262c-3.523,3.283-10.56,3.988-8.685-0.701c1.881-4.695-4.923-8.446-7.978-7.742
							c-3.045,0.699-2.579-7.742-4.921-3.988c-2.348,3.75-4.458,3.284-4.458,8.443c0,5.16,4.458,11.255-0.233,8.683
							c-4.689-2.583-4.342-18.534-10.088-17.829c-9.979,1.218-6.451-10.319-13.018-4.336c-2.117,1.924-4.456,4.45-3.051,8.438
							c2.227,6.334-5.982,2.58-8.328,6.565c-2.349,3.993-4.223,7.162-3.284,12.319c0.935,5.162,1.642,7.273-1.175,11.025
							c-2.811,3.749-5.151,8.23-4.691,12.197c1.063,9.03-14.311,13.839-18.061,10.085c-3.756-3.749-0.938-8.44-3.522-13.136
							c-2.577-4.684-3.276-9.381-2.109-11.961c1.179-2.582,1.179-9.146-1.874-11.961c-3.049-2.818-3.756-4.462-9.151-2.818
							c-5.394,1.641-14.305-0.473-14.305-9.385c0-8.914,0.473-7.974,6.564-14.541c6.1-6.57,8.915-4.461,12.905-7.038
							c3.987-2.579,6.799-0.236,7.971,2.112c1.175,2.344,4.696,4.926,7.042,2.811c2.347-2.105,2.347,1.174,7.504,0
							c5.162-1.172,8.918-5.627,5.398-5.858c0,0-6.683,2.347-6.449-0.589c0.234-2.934,0.234-4.572,6.096-3.99
							c5.861,0.586,7.156-1.406,4.458-3.162c-2.696-1.762-2.812-5.051-5.63-2.469c-2.816,2.583-4.924,0.471-4.689,2.934
							c0.228,2.465-2.465,2.934-4.461,3.17c-1.997,0.23,1.641,2.463,0.12,5.275c-1.524,2.816-2.816-2.346-3.64-3.871
							c-0.818-1.524-3.985-6.333-5.865-6.801c-1.871-0.473,1.412,3.983,3.174,5.047c1.751,1.056,1.166,5.039,0,5.155
							c-1.18,0.122-3.871-0.468-2.115-1.522c1.757-1.053,1.289-3.866-1.176-4.222c-2.461-0.355-1.637-2.815-2.58-3.288
							c-0.934-0.463-3.869,0.119-4.219,2.228c-0.355,2.111-1.294,2.468-3.523,2.582c-2.224,0.122-2.348,1.879-1.52,2.934
							c0.82,1.055-4.928,2.935-6.217,1.055c-1.291-1.876-3.05-5.394-0.94-7.152c2.112-1.764,6.329,1.166,6.687-0.471
							c0.355-1.639-3.055-3.754-1.408-4.574c1.645-0.821,1.527-1.645,2.932-2.699c1.405-1.051,0.467-2.934,2.696-3.64
							c2.233-0.699,4.458-0.466,5.749-1.99c0,0,0.314-1.055,2.816-0.431c2.502,0.631,4.926,0.631,5.471-0.233
							c0.551-0.867-3.205-3.205-1.717-4.226c1.482-1.01,5.004-0.699,3.906-2.418c-1.088-1.725-3.592-1.488-3.203-3.523
							c0.392-2.036,3.129-4.219,2.502-5.551c-0.626-1.328-0.24-3.594-1.642-2.269c-1.408,1.33-4.22,4.305-3.522,5.783
							c0.707,1.495-0.307,2.899,0.789,3.917c1.092,1.014,1.092,1.484-0.553,3.281c-1.637,1.801-2.892,4.139-4.141,2.346
							c-1.253-1.797,0-4.377-2.738-2.504c-2.738,1.883-3.679-0.229-3.051-3.596c0.627-3.359,1.484-3.523,3.518-5.474
							c2.032-1.946,2.352-4.294,2.43-5.079c0.075-0.787-0.078-4.461,4.608-5.318c4.689-0.861,7.669-3.441,7.669,0
							c0,3.44,12.194-0.392,9.379,4.926c-2.814,5.318-5.708,0-5.165,2.115c0.556,2.109,1.335,5.78,5.084,2.336
							c3.754-3.436,2.19-6.875,6.183-7.189c3.98-0.307,8.125-1.404,7.189-2.579c-0.936-1.175,0.155-2.582,2.268-1.72
							c2.111,0.858,6.022,4.538,4.455,1.33c-1.557-3.209-3.363-6.492-1.557-7.35c1.793-0.865,2.656-0.94,3.201,2.109
							c0.549,3.048,0,5.63,1.255,7.742c1.247,2.111,2.811,0.467,2.735-2.975c-0.08-3.438-0.707-5.16,1.562-5.552
							c2.266-0.392,0.155-1.403-0.939-3.599c-1.094-2.185,1.094-2.421,3.204-4.372c2.116-1.961-1.8-3.602,1.643-5.868
							c3.44-2.264,4.849-1.637,5.867-4.3c1.018-2.657,3.912-2.657,4.375-0.548c0.475,2.111,4.93,2.66,2.74,6.178
							c-2.188,3.516,2.967,2.811,3.904,0.629c0.943-2.19,5.082,0.54,6.417,0.776c1.327,0.236,2.66-1.718,4.608-2.579
							c1.957-0.86,2.35,3.057,4.619,3.984c2.266,0.948,4.063,0.316,4.614-1.875c0.55-2.188,1.091-5.472,5.63-4.139
							c4.531,1.327,6.095,2.263,8.131,0.078c2.031-2.19,2.892-2.424,5.079-0.709c2.19,1.722,1.33,3.366,4.541,0.783
							c3.2-2.579,6.407-3.906,9.925-2.265C549.092,912.711,551.907,913.023,551.907,913.023z"/>
						
							<path style="fill:#85C554;stroke:#2B0000;stroke-width:3.3189;stroke-linecap:round;stroke-linejoin:round;stroke-miterlimit:10;" d="
							M357.676,913.673c3.987-1.64,7.273,0.931,7.978,2.346c0.704,1.403,9.384-1.815,13.374-1.354
							c3.983,0.471,3.52,4.694,1.875,5.162c-1.643,0.468-3.521,1.647-5.4,3.52c-1.873,1.877-2.814,2.816-6.565,2.816
							c-3.754,0-2.115,2.821-7.035,5.63c-4.932,2.815-7.274-3.523-5.165-3.523c2.114,0,3.632-3.483,3.289-4.924
							C359.417,920.84,353.695,915.31,357.676,913.673z"/>
						
							<path style="fill:#85C554;stroke:#2B0000;stroke-width:3.3189;stroke-linecap:round;stroke-linejoin:round;stroke-miterlimit:10;" d="
							M408.27,959.629c0,0,2.341,0.779,1.797,2.346c-0.547,1.563-2.579,3.203-0.467,3.6c2.111,0.385,4.383-0.867,4.219-2.977
							c-0.153-2.111-2.735-1.797-2.422-3.279c0.314-1.492-2.574-2.977-2.113-4.223c0.473-1.258-3.752,0.543-3.123,2.891
							C406.781,960.332,407.248,959.787,408.27,959.629z"/>
						
							<path style="fill:#85C554;stroke:#2B0000;stroke-width:3.3189;stroke-linecap:round;stroke-linejoin:round;stroke-miterlimit:10;" d="
							M405.378,964.313c0,0,2.421-0.146,2.185-2.026c-0.233-1.878-2.111-1.333-1.637-2.582c0.471-1.25-3.834,2.271-2.582,3.281
							C404.594,964.006,405.378,964.313,405.378,964.313z"/>
						
							<path style="fill:#85C554;stroke:#2B0000;stroke-width:3.3189;stroke-linecap:round;stroke-linejoin:round;stroke-miterlimit:10;" d="
							M504.132,1013.818c0,0,4.853,9.852,9.228,10.321c4.381,0.468,1.255-2.351,0.624-4.068c-0.624-1.722-3.281-0.784-3.905-2.502
							c-0.633-1.72-2.036-5.006-3.912-4.536C504.293,1013.502,504.132,1013.818,504.132,1013.818z"/>
						
							<path style="fill:#85C554;stroke:#2B0000;stroke-width:3.3189;stroke-linecap:round;stroke-linejoin:round;stroke-miterlimit:10;" d="
							M337.658,914.664c0,0,2.427,1.016,4.303,0.161c1.875-0.865,3.201,1.485,2.813,2.19c-0.385,0.705-2.892,0.389-2.892,1.795
							c0,1.405,2.584,3.99,3.281,2.898c0.706-1.103-0.068-1.415,1.648-1.415c1.717,0,2.736-0.544,2.346-1.793
							c-0.395-1.252-1.72-1.878-0.395-3.136c1.325-1.246-0.781-0.935-2.969-1.246c-2.191-0.31-3.323-1.603-3.17-2.544
							c0.166-0.933-2.691,1.608-3.24,2.075c-0.548,0.469-0.784-2.426-2.502,0C335.162,916.074,337.658,914.664,337.658,914.664z"/>
						
							<path style="fill:#85C554;stroke:#2B0000;stroke-width:3.3189;stroke-linecap:round;stroke-linejoin:round;stroke-miterlimit:10;" d="
							M375.738,1021.521c-1.522-0.818-3.286-2.815-5.04-2.349c-1.761,0.471-5.045,0.588-5.281-2.696
							c-0.233-3.286-2.696-5.86-6.1-4.456c-3.398,1.411-3.635-6.103-5.038-4.691c-1.405,1.406-2.233-1.063-4.46,0
							c-2.233,1.058-2.694-1.293-4.103-1.063c-1.41,0.239-3.873,2.12-5.164,3.056c-1.291,0.933-1.525-0.351-4.103-0.936
							c-2.582-0.593-1.764-4.227-1.764-5.868c0-1.645-2.46-0.471-3.405-1.879c-0.931-1.41,1.182-2.93-0.232-3.868
							c-1.407-0.939-3.164,2.577-5.51,3.638c-2.346,1.055-3.749-4.812-4.104-5.752c-0.351-0.933-0.47-2.578,2.233-4.572
							c2.697-1.996,4.451-0.816,6.21-2.342c1.764-1.524,2.585-0.592,4.227,0c1.637,0.585,0.466,6.096,1.757,6.21
							c1.288,0.116,1.648-4.22,1.404-6.453c-0.23-2.224,3.523-3.276,5.162-3.632c1.65-0.355,2.582-3.521,2.582-4.928
							c0-1.406,2.576-1.877,4.81-3.754c2.227-1.871-0.351-3.281,0.233-6.332c0.588-3.05,3.752-3.52,7.511-3.52
							c3.754,0,5.627,1.875,6.921-3.635c1.283-5.51-6.336-1.995-3.996-5.045c2.35-3.048,0.588-5.866-0.227-7.152
							c-0.82-1.289-1.877,2.816-3.641,3.17c-1.757,0.35-0.824-1.884-0.469-4.225c0.354-2.349-0.47-2.936-1.758-1.645
							c-1.291,1.293-3.051-1.172-4.809,0.587c-1.76,1.759-1.879,2.466-1.879,4.224c0,1.757,1.762,3.287-0.471,4.807
							c-2.227,1.527-0.701,3.757-2.579,5.394c-1.868,1.647-1.642-2.46-1.175-4.567c0.471-2.117,0-1.995-1.754-1.644
							c-1.768,0.352-6.447-0.119-5.987-3.05c0.476-2.929-1.055-1.175-1.288-3.521c-0.234-2.343,1.642-5.746,4.93-5.865
							c3.279-0.115,4.22-2.227,4.22-2.575c0-0.358,0.821-2.227,4.341-2.463c3.52-0.239,2.931-5.4,1.876-6.689
							c-1.058-1.291-2.112,2.349-4.22,3.169c-2.117,0.821-1.997-1.529-0.826-3.751c1.178-2.233,0.943-6.572-1.055-6.572
							c-1.99,0-5.283,5.159-4.926,7.154c0.353,1.997-3.166,1.528-4.925,0.354c-1.759-1.177-1.759-0.587-4.458,0.702
							c-2.694,1.293-4.814-1.175-3.045-3.635c0.104-0.154,0.17-0.305,0.209-0.456c0.507-0.901,2.09-2.906,6.473-3.883
							c5.746-1.291,5.98-4.694,3.403-5.278c-2.582-0.593-6.333-2.227-6.333-4.107c0-1.873-1.879-2.225-4.926-0.471
							c-3.053,1.766-9.27,1.063-10.09,3.517c-0.824,2.465-3.752,4.931-5.395,4.578c-2.815-0.469-6.566-9.148-15.366-8.678
							c-8.799,0.468-6.921,9.379-6.921,9.379s-2.227-1.525-5.276-0.115c-3.055,1.408,1.878,2.113,1.993,4.105
							c0.114,1.992-2.701,0.119-5.391,1.645c-2.702,1.519-1.061,4.453-1.175,7.855c-0.122,3.398,3.985,1.993,4.22,3.167
							c0.233,1.172-3.988,2.816-5.514,4.926c-1.521,2.112,5.628-0.468,7.277-0.587c1.639-0.112,2.926-3.048,3.278-5.274
							c0.351-2.231,3.05-0.818,3.757-1.761c0.703-0.938,1.52,2.811,3.522,2.348c1.988-0.47,5.272,2.346,4.334,4.456
							c-0.938,2.106-0.233,3.634,1.879,6.802c2.109,3.166,2.93,4.926,0.818,4.574c-2.112-0.351-2.814,0.352-1.759,3.164
							c1.06,2.816,3.757,4.578,1.405,10.559c-2.344,5.98,0.823,13.839,2.465,15.01c1.641,1.175,2.934,5.279,3.638,8.332
							c0.704,3.05,3.405,4.574,2.815,1.402c-0.589-3.161-3.754-6.799-2.111-7.851c1.646-1.06,1.875,5.272,3.522,6.212
							c1.64,0.935,2.811,2.931,2.811,5.981c0,3.053,6.102,5.16,7.154,4.455c1.055-0.703,3.279,2.702,6.45,3.64
							c3.162,0.94,3.64,0.233,4.692,2.112c1.052,1.875,4.102,2.816,6.447,3.166c2.349,0.354,0.588,2.583,0.473,4.107
							c-0.119,1.525-2.346,2.697-3.172,3.516c-0.813,0.82-1.052,3.283-0.465,4.688c0.585,1.412,2.578,0.706,3.873,5.283
							c1.287,4.574,6.678,5.749,7.389,7.033c0.701,1.291,1.523,5.169,0.58,6.566c-0.936,1.414-0.463,8.689-0.463,9.623
							c0,0.936,1.177,3.4-0.354,5.16c-1.525,1.758,0.236,4.688-0.24,6.569c-0.463,1.878,2.119,2.931,0.711,4.923
							c-1.406,1.993,2.463,5.165,2.933,7.864c0.466,2.689,3.401,1.992,5.98,1.875c2.582-0.116-1.291-2.699-2.579-5.276
							c-1.294-2.582-0.822-0.823,0.703-2.47c1.523-1.642,0.585-2.334,0.236-5.157c-0.354-2.813,1.055-1.41,1.76-4.336
							c0.698-2.934,2.109-2,3.865-3.762c1.759-1.756-1.642-3.984,3.167-4.57c4.811-0.589,3.286-2.109,4.582-6.803
							c1.284-4.692,1.169-4.103,6.443-6.213c5.278-2.113,2.346-6.106,2.585-9.037c0.233-2.931,3.278-2.931,4.102-6.215
							C381.607,1021.874,377.264,1022.34,375.738,1021.521z"/>
						
							<path style="fill:#85C554;stroke:#2B0000;stroke-width:3.3189;stroke-linecap:round;stroke-linejoin:round;stroke-miterlimit:10;" d="
							M331.467,908.82c0,0,1.756-0.295,1.113,0.882c-0.648,1.174,0.289,1.99,1.463,1.405c1.172-0.587,1.645-1.172,2.814-1.055
							c1.172,0.115,3.291,0.293,2.871-0.701c-0.406-0.999-1.226-1.297-0.582-2.115c0.644-0.818-0.998-0.877-1.938,0.119
							c-0.939,0.997-2.522,0.527-2.404-0.119c0.119-0.643-0.056-0.818-0.699-0.699c-0.647,0.119-1.822-0.82-3.408-0.475
							c-1.579,0.356-5.097,1.82-3.635,1.94c1.47,0.114,1.708,1.58,2.936,0.874C331.225,908.175,331.467,908.82,331.467,908.82z"/>
						
							<path style="fill:#85C554;stroke:#2B0000;stroke-width:3.3189;stroke-linecap:round;stroke-linejoin:round;stroke-miterlimit:10;" d="
							M356.211,901.844c0,0,12.197-1.53,11.084-0.355c-1.113,1.178-6.45,1.643-6.334,2.703c0.115,1.053-2.932,1.988-3.811,1.525
							c-0.877-0.473-3.106,1.639-3.579,0.287c-0.467-1.35-0.292-1.756,1.525-2.404C356.916,902.959,356.737,902.255,356.211,901.844
							z"/>
						
							<path style="fill:#85C554;stroke:#2B0000;stroke-width:3.3189;stroke-linecap:round;stroke-linejoin:round;stroke-miterlimit:10;" d="
							M344.742,910.123c0,0,0.77,2.049,2.234,1.406c1.459-0.646,2.348-1.345,3.396-0.646c1.059,0.705,2.114-0.939,1.059-2.346
							c-1.059-1.405-1.439-1.79-0.703-3.459c0.211-0.482-1.696-0.23-2.293,1.055c-0.582,1.294-1.93,1.582-2.633,0.999
							C345.096,906.545,342.867,908.245,344.742,910.123z"/>
					</g>
				</g>
			</g>
			
				<rect x="402.976" y="1116.512" style="fill:#82449A;stroke:#2B0000;stroke-width:3.3189;stroke-linecap:round;stroke-linejoin:round;stroke-miterlimit:10;" width="30.473" height="34.899"/>
			
				<rect x="369.061" y="1150.431" style="fill:#82449A;stroke:#2B0000;stroke-width:3.3189;stroke-linecap:round;stroke-linejoin:round;stroke-miterlimit:10;" width="98.793" height="21.622"/>
			<g>
				
					<line style="fill:#DCDDDE;stroke:#2B0000;stroke-width:3.3189;stroke-linecap:round;stroke-linejoin:round;stroke-miterlimit:10;" x1="471.545" y1="1080.448" x2="459.869" y2="1065.781"/>
				
					<line style="fill:#DCDDDE;stroke:#2B0000;stroke-width:3.3189;stroke-linecap:round;stroke-linejoin:round;stroke-miterlimit:10;" x1="463.182" y1="1084.668" x2="443.611" y2="1060.088"/>
				
					<line style="fill:#DCDDDE;stroke:#2B0000;stroke-width:3.3189;stroke-linecap:round;stroke-linejoin:round;stroke-miterlimit:10;" x1="488.748" y1="1069.671" x2="473.998" y2="1051.143"/>
				
					<line style="fill:#DCDDDE;stroke:#2B0000;stroke-width:3.3189;stroke-linecap:round;stroke-linejoin:round;stroke-miterlimit:10;" x1="497.082" y1="1063.136" x2="484.471" y2="1047.291"/>
				
					<line style="fill:#DCDDDE;stroke:#2B0000;stroke-width:3.3189;stroke-linecap:round;stroke-linejoin:round;stroke-miterlimit:10;" x1="481.094" y1="1075.147" x2="464.91" y2="1054.818"/>
				
					<line style="fill:#DCDDDE;stroke:#2B0000;stroke-width:3.3189;stroke-linecap:round;stroke-linejoin:round;stroke-miterlimit:10;" x1="509.168" y1="1048.699" x2="495.421" y2="1031.434"/>
				
					<line style="fill:#DCDDDE;stroke:#2B0000;stroke-width:3.3189;stroke-linecap:round;stroke-linejoin:round;stroke-miterlimit:10;" x1="503.645" y1="1056.49" x2="490.285" y2="1039.713"/>
				
					<line style="fill:#DCDDDE;stroke:#2B0000;stroke-width:3.3189;stroke-linecap:round;stroke-linejoin:round;stroke-miterlimit:10;" x1="515.535" y1="1038.758" x2="498.081" y2="1018.583"/>
			</g>
			<g>
				<g>
					<path style="fill:#FFFFFF;" d="M341.256,932.44c-0.744,0-1.502-0.16-2.221-0.506c-2.575-1.232-3.659-4.31-2.424-6.885
						c5.603-11.727,14.553-20.307,27.35-26.236c8.188-3.787,15.86-5.78,23.443-6.098c2.848-0.109,5.248,2.091,5.369,4.936
						c0.119,2.851-2.098,5.252-4.939,5.375c-6.205,0.258-12.6,1.951-19.543,5.162c-10.667,4.94-17.779,11.712-22.372,21.319
						C345.027,931.356,343.184,932.44,341.256,932.44z"/>
				</g>
				<g>
					<path style="fill:#FFFFFF;" d="M335.032,955.592c-0.212,0-0.421-0.015-0.636-0.039c-2.826-0.341-4.84-2.916-4.496-5.746
						c0.475-3.873,1.12-7.559,1.929-10.94c0.655-2.78,3.436-4.487,6.214-3.832c2.77,0.66,4.485,3.442,3.822,6.212
						c-0.713,3.016-1.293,6.314-1.717,9.805C339.822,953.675,337.605,955.592,335.032,955.592z"/>
				</g>
			</g>
		</g>
		<g>
			<g>
				<g>
					
						<polygon style="fill:#DCDDDE;stroke:#2B0000;stroke-width:3.3189;stroke-linecap:round;stroke-linejoin:round;stroke-miterlimit:10;" points="
						740.371,928.118 713.996,930.148 725.121,901.602 					"/>
					<polygon style="fill:#2B0000;" points="729.594,909.388 725.121,901.602 721.855,909.982 					"/>
					
						<polygon style="fill:#FDB72E;stroke:#2B0000;stroke-width:3.3189;stroke-linecap:round;stroke-linejoin:round;stroke-miterlimit:10;" points="
						752.521,1088.331 726.515,1090.329 714.174,930.019 740.174,928.012 					"/>
					<path style="fill:#CC8357;" d="M734.288,928.545c1.393,15.607,12.013,143.767,10,148.941c-2.395,6.168-10.38,6.065-18.28,6.295
						l0.507,6.548l26.007-1.998l-12.348-160.319L734.288,928.545z"/>
					<g>
						<path style="fill:#FFFFFF;" d="M725.843,974.941c0.048,0.707-0.732,1.338-1.745,1.42l0,0c-1.013,0.073-1.88-0.436-1.936-1.13
							l-2.865-37.235c-0.054-0.703,0.727-1.33,1.742-1.41l0,0c1.016-0.078,1.881,0.429,1.936,1.128L725.843,974.941z"/>
						<path style="fill:#FFFFFF;" d="M726.729,987.519c0.083,0.979-0.714,1.832-1.757,1.919l0,0
							c-1.047,0.078-1.956-0.652-2.033-1.631l-0.619-8.084c-0.078-0.981,0.709-1.841,1.758-1.919l0,0
							c1.046-0.081,1.957,0.646,2.029,1.625L726.729,987.519z"/>
					</g>
					
						<line style="fill:#DCDDDE;stroke:#2B0000;stroke-width:3.3189;stroke-linecap:round;stroke-linejoin:round;stroke-miterlimit:10;" x1="724.619" y1="1063.206" x2="734.632" y2="1062.432"/>
					
						<line style="fill:#DCDDDE;stroke:#2B0000;stroke-width:3.3189;stroke-linecap:round;stroke-linejoin:round;stroke-miterlimit:10;" x1="724.154" y1="1057.162" x2="731.499" y2="1056.595"/>
					
						<line style="fill:#DCDDDE;stroke:#2B0000;stroke-width:3.3189;stroke-linecap:round;stroke-linejoin:round;stroke-miterlimit:10;" x1="725.082" y1="1069.242" x2="735.162" y2="1068.463"/>
					
						<line style="fill:#DCDDDE;stroke:#2B0000;stroke-width:3.3189;stroke-linecap:round;stroke-linejoin:round;stroke-miterlimit:10;" x1="723.227" y1="1045.087" x2="733.238" y2="1044.31"/>
					
						<line style="fill:#DCDDDE;stroke:#2B0000;stroke-width:3.3189;stroke-linecap:round;stroke-linejoin:round;stroke-miterlimit:10;" x1="722.761" y1="1039.045" x2="730.103" y2="1038.476"/>
					
						<line style="fill:#DCDDDE;stroke:#2B0000;stroke-width:3.3189;stroke-linecap:round;stroke-linejoin:round;stroke-miterlimit:10;" x1="723.691" y1="1051.121" x2="733.765" y2="1050.344"/>
					
						<line style="fill:#DCDDDE;stroke:#2B0000;stroke-width:3.3189;stroke-linecap:round;stroke-linejoin:round;stroke-miterlimit:10;" x1="721.83" y1="1026.963" x2="731.845" y2="1026.193"/>
					
						<line style="fill:#DCDDDE;stroke:#2B0000;stroke-width:3.3189;stroke-linecap:round;stroke-linejoin:round;stroke-miterlimit:10;" x1="721.367" y1="1020.926" x2="728.707" y2="1020.361"/>
					
						<line style="fill:#DCDDDE;stroke:#2B0000;stroke-width:3.3189;stroke-linecap:round;stroke-linejoin:round;stroke-miterlimit:10;" x1="720.9" y1="1014.885" x2="730.912" y2="1014.117"/>
					
						<line style="fill:#DCDDDE;stroke:#2B0000;stroke-width:3.3189;stroke-linecap:round;stroke-linejoin:round;stroke-miterlimit:10;" x1="720.441" y1="1008.846" x2="727.779" y2="1008.275"/>
					
						<line style="fill:#DCDDDE;stroke:#2B0000;stroke-width:3.3189;stroke-linecap:round;stroke-linejoin:round;stroke-miterlimit:10;" x1="722.291" y1="1033.004" x2="732.373" y2="1032.232"/>
				</g>
				<g>
					
						<polygon style="fill:#DCDDDE;stroke:#2B0000;stroke-width:3.3189;stroke-linecap:round;stroke-linejoin:round;stroke-miterlimit:10;" points="
						777.235,927.482 750.785,927.482 764.066,899.883 					"/>
					<polygon style="fill:#2B0000;" points="767.932,907.984 764.066,899.883 760.164,907.984 					"/>
					
						<rect x="750.968" y="927.368" style="fill:#EE4894;stroke:#2B0000;stroke-width:3.3189;stroke-linecap:round;stroke-linejoin:round;stroke-miterlimit:10;" width="26.08" height="160.793"/>
					<path style="fill:#BB5B8E;" d="M771.141,927.449c0.188,15.658,0.943,144.269-1.465,149.268
						c-2.857,5.958-10.811,5.247-18.708,4.867v6.577h26.08V927.368L771.141,927.449z"/>
					<g>
						<path style="fill:#FFFFFF;" d="M759.152,973.063c0,0.697-0.825,1.269-1.839,1.269l0,0c-1.02,0-1.847-0.572-1.847-1.269
							v-37.344c0-0.704,0.826-1.271,1.847-1.271l0,0c1.014,0,1.839,0.567,1.839,1.271V973.063z"/>
						<path style="fill:#FFFFFF;" d="M759.074,985.667c0,0.979-0.845,1.771-1.894,1.771l0,0c-1.05,0-1.904-0.791-1.904-1.771v-8.112
							c0-0.983,0.854-1.783,1.904-1.783l0,0c1.05,0,1.894,0.8,1.894,1.783V985.667z"/>
					</g>
					
						<line style="fill:#DCDDDE;stroke:#2B0000;stroke-width:3.3189;stroke-linecap:round;stroke-linejoin:round;stroke-miterlimit:10;" x1="751.16" y1="1060.965" x2="761.204" y2="1060.965"/>
					
						<line style="fill:#DCDDDE;stroke:#2B0000;stroke-width:3.3189;stroke-linecap:round;stroke-linejoin:round;stroke-miterlimit:10;" x1="751.16" y1="1054.904" x2="758.521" y2="1054.904"/>
					
						<line style="fill:#DCDDDE;stroke:#2B0000;stroke-width:3.3189;stroke-linecap:round;stroke-linejoin:round;stroke-miterlimit:10;" x1="751.16" y1="1067.023" x2="761.268" y2="1067.023"/>
					
						<line style="fill:#DCDDDE;stroke:#2B0000;stroke-width:3.3189;stroke-linecap:round;stroke-linejoin:round;stroke-miterlimit:10;" x1="751.16" y1="1042.792" x2="761.204" y2="1042.792"/>
					
						<line style="fill:#DCDDDE;stroke:#2B0000;stroke-width:3.3189;stroke-linecap:round;stroke-linejoin:round;stroke-miterlimit:10;" x1="751.16" y1="1036.736" x2="758.521" y2="1036.736"/>
					
						<line style="fill:#DCDDDE;stroke:#2B0000;stroke-width:3.3189;stroke-linecap:round;stroke-linejoin:round;stroke-miterlimit:10;" x1="751.16" y1="1048.846" x2="761.268" y2="1048.846"/>
					
						<line style="fill:#DCDDDE;stroke:#2B0000;stroke-width:3.3189;stroke-linecap:round;stroke-linejoin:round;stroke-miterlimit:10;" x1="751.16" y1="1024.617" x2="761.204" y2="1024.617"/>
					
						<line style="fill:#DCDDDE;stroke:#2B0000;stroke-width:3.3189;stroke-linecap:round;stroke-linejoin:round;stroke-miterlimit:10;" x1="751.16" y1="1018.559" x2="758.521" y2="1018.559"/>
					
						<line style="fill:#DCDDDE;stroke:#2B0000;stroke-width:3.3189;stroke-linecap:round;stroke-linejoin:round;stroke-miterlimit:10;" x1="751.16" y1="1012.502" x2="761.204" y2="1012.502"/>
					
						<line style="fill:#DCDDDE;stroke:#2B0000;stroke-width:3.3189;stroke-linecap:round;stroke-linejoin:round;stroke-miterlimit:10;" x1="751.16" y1="1006.449" x2="758.521" y2="1006.449"/>
					
						<line style="fill:#DCDDDE;stroke:#2B0000;stroke-width:3.3189;stroke-linecap:round;stroke-linejoin:round;stroke-miterlimit:10;" x1="751.16" y1="1030.68" x2="761.268" y2="1030.68"/>
				</g>
				<g>
					
						<polygon style="fill:#DCDDDE;stroke:#2B0000;stroke-width:3.3189;stroke-linecap:round;stroke-linejoin:round;stroke-miterlimit:10;" points="
						812.727,929.427 786.355,927.29 801.822,900.848 					"/>
					<polygon style="fill:#2B0000;" points="805.025,909.234 801.822,900.848 797.289,908.611 					"/>
					
						<rect x="712.673" y="995.327" transform="matrix(0.0807 -0.9967 0.9967 0.0807 -275.9946 1717.5042)" style="fill:#85C554;stroke:#2B0000;stroke-width:3.3189;stroke-linecap:round;stroke-linejoin:round;stroke-miterlimit:10;" width="160.787" height="26.086"/>
					<path style="fill:#679A44;" d="M806.65,928.891c-1.074,15.627-10.693,143.869-13.496,148.669
						c-3.33,5.705-11.203,4.355-19.045,3.337l-0.527,6.553l26.002,2.104l12.967-160.264L806.65,928.891z"/>
					<g>
						<path style="fill:#FFFFFF;" d="M791.028,973.387c-0.061,0.705-0.923,1.206-1.941,1.119l0,0
							c-1.017-0.078-1.793-0.712-1.731-1.414l3.01-37.217c0.057-0.704,0.926-1.206,1.94-1.123l0,0
							c1.014,0.082,1.793,0.719,1.732,1.42L791.028,973.387z"/>
						<path style="fill:#FFFFFF;" d="M789.93,985.947c-0.076,0.979-0.986,1.703-2.031,1.615l0,0
							c-1.051-0.083-1.832-0.95-1.754-1.924l0.657-8.084c0.075-0.977,0.989-1.697,2.029-1.619l0,0
							c1.06,0.085,1.832,0.947,1.759,1.93L789.93,985.947z"/>
					</g>
					
						<line style="fill:#DCDDDE;stroke:#2B0000;stroke-width:3.3189;stroke-linecap:round;stroke-linejoin:round;stroke-miterlimit:10;" x1="775.969" y1="1060.365" x2="785.978" y2="1061.172"/>
					
						<line style="fill:#DCDDDE;stroke:#2B0000;stroke-width:3.3189;stroke-linecap:round;stroke-linejoin:round;stroke-miterlimit:10;" x1="776.461" y1="1054.326" x2="783.799" y2="1054.916"/>
					
						<line style="fill:#DCDDDE;stroke:#2B0000;stroke-width:3.3189;stroke-linecap:round;stroke-linejoin:round;stroke-miterlimit:10;" x1="775.484" y1="1066.397" x2="785.557" y2="1067.216"/>
					
						<line style="fill:#DCDDDE;stroke:#2B0000;stroke-width:3.3189;stroke-linecap:round;stroke-linejoin:round;stroke-miterlimit:10;" x1="777.438" y1="1042.246" x2="787.442" y2="1043.055"/>
					
						<line style="fill:#DCDDDE;stroke:#2B0000;stroke-width:3.3189;stroke-linecap:round;stroke-linejoin:round;stroke-miterlimit:10;" x1="777.922" y1="1036.207" x2="785.262" y2="1036.809"/>
					
						<line style="fill:#DCDDDE;stroke:#2B0000;stroke-width:3.3189;stroke-linecap:round;stroke-linejoin:round;stroke-miterlimit:10;" x1="776.945" y1="1048.287" x2="787.023" y2="1049.104"/>
					
						<line style="fill:#DCDDDE;stroke:#2B0000;stroke-width:3.3189;stroke-linecap:round;stroke-linejoin:round;stroke-miterlimit:10;" x1="778.899" y1="1024.137" x2="788.912" y2="1024.948"/>
					
						<line style="fill:#DCDDDE;stroke:#2B0000;stroke-width:3.3189;stroke-linecap:round;stroke-linejoin:round;stroke-miterlimit:10;" x1="779.389" y1="1018.096" x2="786.733" y2="1018.697"/>
					
						<line style="fill:#DCDDDE;stroke:#2B0000;stroke-width:3.3189;stroke-linecap:round;stroke-linejoin:round;stroke-miterlimit:10;" x1="779.881" y1="1012.059" x2="789.891" y2="1012.868"/>
					
						<line style="fill:#DCDDDE;stroke:#2B0000;stroke-width:3.3189;stroke-linecap:round;stroke-linejoin:round;stroke-miterlimit:10;" x1="780.368" y1="1006.025" x2="787.705" y2="1006.617"/>
					
						<line style="fill:#DCDDDE;stroke:#2B0000;stroke-width:3.3189;stroke-linecap:round;stroke-linejoin:round;stroke-miterlimit:10;" x1="778.417" y1="1030.174" x2="788.487" y2="1030.992"/>
				</g>
			</g>
			<g>
				
					<polygon style="fill:#82449A;stroke:#2B0000;stroke-width:3.3189;stroke-linecap:round;stroke-linejoin:round;stroke-miterlimit:10;" points="
					810.432,1168.92 724.174,1168.92 708.651,1021.043 827.769,1021.043 				"/>
				<path style="fill:#743271;" d="M806.727,1021.043c-0.896,11.775-3.628,78.007-5.235,99.249
					c-1.026,13.457-2.015,34.021-15.02,38.82c-9.213,3.392-52.114,3.333-62.979,3.318l0.682,6.489h86.258l17.337-147.877H806.727z"
					/>
				
					<path style="fill:#82449A;stroke:#2B0000;stroke-width:3.3189;stroke-linecap:round;stroke-linejoin:round;stroke-miterlimit:10;" d="
					M834.85,1028.807c0,2.273-1.819,4.105-4.063,4.105H705.65c-2.246,0-4.064-1.832-4.064-4.105v-14.148
					c0-2.266,1.817-4.104,4.064-4.104h125.137c2.243,0,4.063,1.839,4.063,4.104V1028.807z"/>
				
					<line style="fill:#DCDDDE;stroke:#2B0000;stroke-width:3.3189;stroke-linecap:round;stroke-linejoin:round;stroke-miterlimit:10;" x1="723.23" y1="1147.639" x2="737.199" y2="1147.639"/>
				
					<line style="fill:#DCDDDE;stroke:#2B0000;stroke-width:3.3189;stroke-linecap:round;stroke-linejoin:round;stroke-miterlimit:10;" x1="721.435" y1="1139.722" x2="733.477" y2="1139.722"/>
				
					<line style="fill:#DCDDDE;stroke:#2B0000;stroke-width:3.3189;stroke-linecap:round;stroke-linejoin:round;stroke-miterlimit:10;" x1="724.05" y1="1155.565" x2="737.289" y2="1155.565"/>
				
					<line style="fill:#DCDDDE;stroke:#2B0000;stroke-width:3.3189;stroke-linecap:round;stroke-linejoin:round;stroke-miterlimit:10;" x1="720.973" y1="1123.878" x2="737.188" y2="1123.878"/>
				
					<line style="fill:#DCDDDE;stroke:#2B0000;stroke-width:3.3189;stroke-linecap:round;stroke-linejoin:round;stroke-miterlimit:10;" x1="719.852" y1="1115.956" x2="731.416" y2="1115.956"/>
				
					<line style="fill:#DCDDDE;stroke:#2B0000;stroke-width:3.3189;stroke-linecap:round;stroke-linejoin:round;stroke-miterlimit:10;" x1="720.973" y1="1131.8" x2="737.289" y2="1131.8"/>
				
					<line style="fill:#DCDDDE;stroke:#2B0000;stroke-width:3.3189;stroke-linecap:round;stroke-linejoin:round;stroke-miterlimit:10;" x1="718.113" y1="1100.117" x2="737.15" y2="1100.117"/>
				
					<line style="fill:#DCDDDE;stroke:#2B0000;stroke-width:3.3189;stroke-linecap:round;stroke-linejoin:round;stroke-miterlimit:10;" x1="717.903" y1="1092.195" x2="731.416" y2="1092.195"/>
				
					<line style="fill:#DCDDDE;stroke:#2B0000;stroke-width:3.3189;stroke-linecap:round;stroke-linejoin:round;stroke-miterlimit:10;" x1="716.985" y1="1084.277" x2="737.15" y2="1084.277"/>
				
					<line style="fill:#DCDDDE;stroke:#2B0000;stroke-width:3.3189;stroke-linecap:round;stroke-linejoin:round;stroke-miterlimit:10;" x1="714.934" y1="1076.355" x2="729.879" y2="1076.355"/>
				
					<line style="fill:#DCDDDE;stroke:#2B0000;stroke-width:3.3189;stroke-linecap:round;stroke-linejoin:round;stroke-miterlimit:10;" x1="718.824" y1="1108.039" x2="736.467" y2="1108.039"/>
				<g>
					<path style="fill:#FFFFFF;" d="M729.104,1083.265c0.077,0.813-0.804,1.563-1.977,1.681l0,0
						c-1.17,0.122-2.191-0.438-2.274-1.252l-4.383-42.965c-0.082-0.809,0.799-1.561,1.974-1.684l0,0
						c1.175-0.119,2.185,0.439,2.271,1.248L729.104,1083.265z"/>
					<path style="fill:#FFFFFF;" d="M730.488,1097.773c0.117,1.135-0.768,2.153-1.979,2.275l0,0
						c-1.205,0.122-2.277-0.697-2.395-1.822l-0.952-9.33c-0.117-1.13,0.769-2.153,1.977-2.271l0,0
						c1.213-0.127,2.285,0.692,2.398,1.817L730.488,1097.773z"/>
				</g>
			</g>
		</g>
		<g>
			<g>
				
					<polygon style="fill:#FDB72E;stroke:#2B0000;stroke-width:3.3189;stroke-linecap:round;stroke-linejoin:round;stroke-miterlimit:10;" points="
					478.449,717.207 495.586,713.972 488.145,697.96 				"/>
				
					<polygon style="fill:#FDB72E;stroke:#2B0000;stroke-width:3.3189;stroke-linecap:round;stroke-linejoin:round;stroke-miterlimit:10;" points="
					510.093,746.663 583.56,666.387 473.933,666.535 				"/>
				<path style="fill:#CC8357;" d="M504.443,723.44c2.275,3.372,5.566,7.253,10.037,7.221c6.266-0.046,11.366-5.386,15.272-9.72
					c5.897-6.551,11.651-13.196,17.619-19.69c10.602-11.52,21.087-23.147,31.477-34.86l4.713-0.004l-73.468,80.276l-36.16-80.128
					l3.971-0.012C478.234,666.896,500.427,717.496,504.443,723.44z"/>
				
					<polygon style="fill:#F99F22;stroke:#2B0000;stroke-width:3.3189;stroke-linecap:round;stroke-linejoin:round;stroke-miterlimit:10;" points="
					488.145,697.96 478.449,717.207 492.098,706.271 				"/>
				
					<polygon style="fill:#F99F22;stroke:#2B0000;stroke-width:3.3189;stroke-linecap:round;stroke-linejoin:round;stroke-miterlimit:10;" points="
					492.098,706.271 570.029,672.391 488.145,697.96 				"/>
				<g>
					
						<line style="fill:#DCDDDE;stroke:#2B0000;stroke-width:3.3189;stroke-linecap:round;stroke-linejoin:round;stroke-miterlimit:10;" x1="530.125" y1="666.905" x2="530.151" y2="674.108"/>
					
						<line style="fill:#DCDDDE;stroke:#2B0000;stroke-width:3.3189;stroke-linecap:round;stroke-linejoin:round;stroke-miterlimit:10;" x1="525.452" y1="666.928" x2="525.477" y2="672.203"/>
					
						<line style="fill:#DCDDDE;stroke:#2B0000;stroke-width:3.3189;stroke-linecap:round;stroke-linejoin:round;stroke-miterlimit:10;" x1="534.785" y1="666.889" x2="534.811" y2="674.144"/>
					
						<line style="fill:#DCDDDE;stroke:#2B0000;stroke-width:3.3189;stroke-linecap:round;stroke-linejoin:round;stroke-miterlimit:10;" x1="516.125" y1="666.961" x2="516.151" y2="674.162"/>
					
						<line style="fill:#DCDDDE;stroke:#2B0000;stroke-width:3.3189;stroke-linecap:round;stroke-linejoin:round;stroke-miterlimit:10;" x1="511.459" y1="666.981" x2="511.478" y2="672.262"/>
					
						<line style="fill:#DCDDDE;stroke:#2B0000;stroke-width:3.3189;stroke-linecap:round;stroke-linejoin:round;stroke-miterlimit:10;" x1="520.789" y1="666.947" x2="520.816" y2="674.191"/>
					
						<line style="fill:#DCDDDE;stroke:#2B0000;stroke-width:3.3189;stroke-linecap:round;stroke-linejoin:round;stroke-miterlimit:10;" x1="502.127" y1="667.015" x2="502.154" y2="674.216"/>
					
						<line style="fill:#DCDDDE;stroke:#2B0000;stroke-width:3.3189;stroke-linecap:round;stroke-linejoin:round;stroke-miterlimit:10;" x1="497.465" y1="667.031" x2="497.484" y2="672.313"/>
					
						<line style="fill:#DCDDDE;stroke:#2B0000;stroke-width:3.3189;stroke-linecap:round;stroke-linejoin:round;stroke-miterlimit:10;" x1="492.797" y1="667.054" x2="492.828" y2="674.25"/>
					
						<line style="fill:#DCDDDE;stroke:#2B0000;stroke-width:3.3189;stroke-linecap:round;stroke-linejoin:round;stroke-miterlimit:10;" x1="488.127" y1="667.07" x2="488.149" y2="672.35"/>
					
						<line style="fill:#DCDDDE;stroke:#2B0000;stroke-width:3.3189;stroke-linecap:round;stroke-linejoin:round;stroke-miterlimit:10;" x1="506.795" y1="666.992" x2="506.826" y2="674.24"/>
				</g>
			</g>
			<g>
				<g>
					<g>
						<path style="fill:none;stroke:#2B0000;stroke-width:3.3189;stroke-linecap:round;stroke-linejoin:round;" d="M463.881,722.71
							c0,0-0.647,0.233-1.81,0.673"/>
						
							<path style="fill:none;stroke:#2B0000;stroke-width:3.3189;stroke-linecap:round;stroke-linejoin:round;stroke-dasharray:3.8644,5.1525;" d="
							M457.277,725.243c-20.521,8.171-79.904,34.224-47.639,50.589c35.271,17.889,27.958-42.252-13.438-27.963
							c-40.65,14.034-85.129,120.844-13.627,160.079"/>
						<path style="fill:none;stroke:#2B0000;stroke-width:3.3189;stroke-linecap:round;stroke-linejoin:round;" d="M384.876,909.166
							c0.575,0.295,1.157,0.584,1.747,0.869"/>
					</g>
				</g>
			</g>
		</g>
	</g>
</g>
</svg>
